<?xml version="1.0" encoding="UTF-8"?>
<svg xmlns="http://www.w3.org/2000/svg" xmlns:xlink="http://www.w3.org/1999/xlink" width="128px" height="81px" viewBox="0 0 128 81" version="1.1">
<g id="surface1">
<path style=" stroke:none;fill-rule:nonzero;fill:rgb(35.686275%,65.490198%,87.843138%);fill-opacity:1;" d="M 126.097656 43.355469 C 124.84375 41.757812 123.039062 40.644531 120.675781 40.019531 C 122.78125 39.472656 124.382812 38.542969 125.484375 37.226562 C 126.585938 35.910156 127.132812 34.265625 127.132812 32.289062 C 127.132812 29.386719 126.085938 27.054688 123.988281 25.296875 C 121.894531 23.539062 119.09375 22.660156 115.589844 22.660156 C 114.417969 22.660156 113.074219 22.789062 111.554688 23.042969 C 110.035156 23.300781 108.304688 23.6875 106.359375 24.199219 L 106.359375 28.679688 C 108.03125 28.039062 109.628906 27.554688 111.15625 27.234375 C 112.683594 26.914062 114.160156 26.753906 115.589844 26.753906 C 117.742188 26.753906 119.402344 27.246094 120.566406 28.234375 C 121.730469 29.222656 122.316406 30.636719 122.316406 32.484375 C 122.316406 34.234375 121.6875 35.597656 120.433594 36.578125 C 119.183594 37.554688 117.4375 38.042969 115.207031 38.042969 L 111.492188 38.042969 L 111.492188 42.042969 L 115.207031 42.042969 C 117.648438 42.042969 119.582031 42.65625 121.011719 43.882812 C 122.441406 45.113281 123.160156 46.769531 123.160156 48.855469 C 123.160156 51.117188 122.441406 52.851562 121.011719 54.054688 C 119.582031 55.261719 117.535156 55.863281 114.867188 55.863281 C 113.292969 55.863281 111.710938 55.652344 110.121094 55.234375 C 108.53125 54.820312 106.914062 54.183594 105.277344 53.332031 L 105.277344 58.171875 C 106.925781 58.75 108.617188 59.191406 110.335938 59.496094 C 112.054688 59.800781 113.742188 59.953125 115.398438 59.953125 C 119.335938 59.953125 122.414062 59.011719 124.640625 57.125 C 126.867188 55.238281 127.976562 52.644531 127.976562 49.335938 C 127.976562 46.945312 127.351562 44.949219 126.097656 43.355469 "/>
<path style=" stroke:none;fill-rule:nonzero;fill:rgb(29.019609%,73.725492%,22.352941%);fill-opacity:1;" d="M 52.730469 0 L 38.832031 13.449219 L 45.183594 13.449219 L 54.09375 4.816406 L 63.003906 13.449219 L 69.351562 13.449219 L 55.457031 0 Z M 41.300781 16.597656 C 37.71875 16.597656 34.113281 17.191406 30.480469 18.378906 C 26.847656 19.566406 23.136719 21.371094 19.34375 23.792969 L 19.34375 27.648438 C 23.023438 25.511719 26.6875 23.917969 30.335938 22.867188 C 33.984375 21.816406 37.636719 21.292969 41.300781 21.292969 C 44.949219 21.292969 48.597656 21.816406 52.242188 22.867188 C 55.890625 23.917969 59.578125 25.511719 63.304688 27.648438 L 63.304688 23.792969 C 59.511719 21.371094 55.800781 19.566406 52.171875 18.378906 C 48.539062 17.191406 44.917969 16.597656 41.300781 16.597656 Z M 102.195312 25.734375 L 86.113281 40.050781 L 86.113281 42.859375 L 102.195312 57.179688 L 102.195312 50.636719 L 91.875 41.457031 L 102.195312 32.277344 Z M 15.839844 25.886719 L 0.0195312 39.972656 L 0.0195312 42.734375 L 15.839844 56.820312 L 15.839844 50.382812 L 5.6875 41.351562 L 15.839844 32.320312 Z M 66.699219 25.980469 L 66.699219 32.417969 L 76.851562 41.449219 L 66.699219 50.480469 L 66.699219 56.914062 L 82.519531 42.828125 L 82.519531 40.066406 Z M 22.023438 34.914062 L 22.023438 41.386719 L 27.378906 41.386719 L 27.378906 34.914062 Z M 19.34375 55.039062 L 19.34375 58.894531 C 23.136719 61.316406 26.847656 63.121094 30.480469 64.308594 C 34.109375 65.496094 37.71875 66.09375 41.300781 66.09375 C 44.917969 66.09375 48.539062 65.496094 52.171875 64.308594 C 55.800781 63.121094 59.511719 61.316406 63.304688 58.894531 L 63.304688 55.039062 C 59.578125 57.175781 55.890625 58.769531 52.242188 59.820312 C 48.59375 60.871094 44.949219 61.398438 41.300781 61.398438 C 37.636719 61.398438 33.984375 60.871094 30.335938 59.820312 C 26.6875 58.769531 23.023438 57.175781 19.34375 55.039062 Z M 34.289062 68.472656 L 34.289062 72.867188 L 38.476562 81 L 41.75 81 L 39.644531 72.867188 L 39.644531 68.472656 Z M 34.289062 68.472656 "/>
</g>
</svg>
