<?xml version="1.0" encoding="UTF-8"?>
<svg xmlns="http://www.w3.org/2000/svg" xmlns:xlink="http://www.w3.org/1999/xlink" width="106px" height="128px" viewBox="0 0 106 127" version="1.1">
<g id="surface1">
<path style=" stroke:none;fill-rule:evenodd;fill:rgb(25.490198%,56.078434%,87.058824%);fill-opacity:1;" d="M 106 21.441406 L 84.796875 42.472656 L 42.398438 42.472656 L 42.398438 58.242188 L 63.601562 58.242188 L 63.601562 79.273438 L 42.398438 79.273438 L 42.398438 105.558594 L 21.203125 126.585938 L 42.667969 126.585938 C 44.277344 126.585938 45.699219 125.558594 46.195312 124.046875 L 50.03125 112.328125 C 50.398438 111.207031 51.285156 110.332031 52.414062 109.96875 L 55.363281 109.019531 C 56.492188 108.652344 57.734375 108.847656 58.691406 109.539062 L 68.734375 116.777344 C 70.035156 117.714844 71.796875 117.714844 73.097656 116.777344 L 82.101562 110.289062 C 83.402344 109.351562 83.945312 107.695312 83.449219 106.175781 L 79.609375 94.460938 C 79.246094 93.339844 79.441406 92.113281 80.140625 91.160156 L 81.964844 88.671875 C 82.660156 87.71875 83.777344 87.15625 84.964844 87.15625 L 97.378906 87.15625 C 98.988281 87.15625 100.410156 86.128906 100.910156 84.609375 L 104.347656 74.113281 C 104.84375 72.597656 104.300781 70.933594 103 69.996094 L 92.953125 62.753906 C 91.992188 62.0625 91.425781 60.960938 91.425781 59.78125 L 91.425781 56.703125 C 91.425781 55.527344 91.992188 54.417969 92.953125 53.726562 L 104.472656 45.429688 C 105.433594 44.734375 106 43.628906 106 42.449219 Z M 106 21.441406 "/>
<path style=" stroke:none;fill-rule:evenodd;fill:rgb(100%,34.509805%,36.470589%);fill-opacity:1;" d="M 84.796875 0.414062 L 63.601562 21.441406 L 84.796875 21.441406 L 84.796875 42.472656 L 106 21.441406 L 106 0.414062 Z M 21.203125 84.527344 L 0 105.558594 L 0 126.585938 L 21.203125 126.585938 L 42.398438 105.558594 L 21.203125 105.558594 Z M 21.203125 84.527344 "/>
<path style=" stroke:none;fill-rule:evenodd;fill:rgb(79.607844%,20%,23.137255%);fill-opacity:1;" d="M 21.203125 0.414062 L 0 21.441406 L 0 105.558594 L 21.203125 84.527344 L 21.203125 21.441406 L 63.601562 21.441406 L 84.796875 0.414062 Z M 21.203125 0.414062 "/>
<path style=" stroke:none;fill-rule:evenodd;fill:rgb(100%,100%,100%);fill-opacity:1;" d="M 21.203125 105.558594 L 42.398438 105.558594 L 42.398438 79.273438 L 63.601562 79.273438 L 63.601562 58.242188 L 42.398438 58.242188 L 42.398438 42.472656 L 84.796875 42.472656 L 84.796875 21.441406 L 21.203125 21.441406 Z M 21.203125 105.558594 "/>
</g>
</svg>
