<?xml version="1.0" encoding="UTF-8"?>
<svg width="87px" height="30px" viewBox="0 0 87 30" version="1.1" xmlns="http://www.w3.org/2000/svg" xmlns:xlink="http://www.w3.org/1999/xlink">
    <!-- Generator: sketchtool 41.2 (35397) - http://www.bohemiancoding.com/sketch -->
    <title>C0A05EA0-297A-4570-9608-D713E92E241F</title>
    <desc>Created with sketchtool.</desc>
    <defs/>
    <g id="Designs" stroke="none" stroke-width="1" fill="none" fill-rule="evenodd">
        <g id="_Assets" transform="translate(-48.000000, -1754.000000)" fill="#FF3344">
            <g id="ivpn-logo" transform="translate(48.000000, 1754.000000)">
                <path d="M6.98673835,0 L13.2351593,0 C13.3128081,0 13.3867117,0.0345190102 13.4368963,0.0944863418 C13.4875802,0.15420171 13.5093019,0.233318273 13.4963188,0.310923056 L8.89656695,28.3804216 C8.87634332,28.5038837 8.77372714,28.5966063 8.6501383,28.6036613 L1.77984729,28.9994961 C1.7748538,28.999748 1.77010999,29 1.76486682,29 C1.6899645,29 1.61805827,28.9680006 1.56787371,28.9113088 C1.51394403,28.8505856 1.49022496,28.7686974 1.50370738,28.688573 L5.38490406,5.22526651 C5.30354384,1.72941019 1.0274696,0.884181524 0.505665908,0.753345764 C-0.057399981,0.61188166 0.00178592214,0 0.00178592214,0 L6.98673835,0 Z M40.4624519,0.126549777 C40.4152554,0.0480443381 40.331133,0 40.2404081,0 L33.4998623,0 C33.4030238,0 33.3147443,0.05448327 33.2697486,0.140913548 L23.9678737,18.1352517 L20.8015485,0.216694824 C20.7792952,0.0911356517 20.6719414,0 20.546247,0 L13.7594829,0 C13.6824523,0 13.6088452,0.0349188231 13.5596924,0.0953457225 C13.5105395,0.15527732 13.4902425,0.234773364 13.5044259,0.311792895 L18.5295121,27.2597136 C18.5527436,27.3842821 18.6600974,27.4736842 18.7843245,27.4736842 C18.7889708,27.4736842 18.7941062,27.4734366 18.798997,27.4731889 L26.6333776,27.0199872 C26.7245916,27.0147865 26.8067576,26.9612938 26.8488188,26.8790736 L40.4705218,0.384354705 C40.5125829,0.3026298 40.5094039,0.205055216 40.4624519,0.126549777 Z M61.4567359,5.81268205 C61.3696689,4.99872146 61.1848006,4.27560686 60.9069017,3.66257909 C60.6280486,3.04955133 60.2771566,2.52420333 59.8642442,2.10139197 C59.4563411,1.6856437 59.0281621,1.33906503 58.5861479,1.06798838 C57.5153426,0.447897523 56.2427328,0.0888975508 54.7876399,0 L41.9107838,0 C41.7872202,0 41.6813085,0.0913331002 41.6610327,0.215789671 L37.5035223,25.6463345 C37.4906411,25.723785 37.513541,25.8029403 37.564827,25.8616371 C37.6127735,25.9164369 37.681473,25.9473684 37.7532735,25.9473684 C37.7582828,25.9473684 37.7625765,25.9471249 37.7675859,25.9468813 L44.2413178,25.5696147 C44.3596335,25.5627952 44.4574349,25.4729234 44.4767566,25.3535815 L45.2505797,20.5616382 L51.5523245,20.5611511 C52.9859487,20.4732277 54.3391851,20.1164198 55.5743442,19.5009564 C56.642764,18.9700067 57.6849445,18.1148853 58.6727378,16.9601914 C59.6693571,15.7945375 60.3642236,14.1356848 60.7363457,12.0286911 L61.328163,8.62038332 C61.4996731,7.56652113 61.5433259,6.62177154 61.4567359,5.81268205 Z M53.9906784,11.8896212 C53.91363,12.2819882 53.7721759,12.6251571 53.5675088,12.9127955 C53.3900352,13.1712073 53.1500641,13.4023409 52.8549904,13.5988897 C52.5747061,13.7856964 52.188033,13.8801957 51.7059441,13.8801957 L46.3034945,13.8801957 L47.4461001,6.63808972 L52.9301304,6.63808972 C53.398384,6.63808972 53.739496,6.73234548 53.9436861,6.91720367 C54.1667208,7.11984138 54.3289279,7.34853946 54.4233896,7.58844107 C54.5226222,7.86901635 54.5603115,8.21096748 54.5378887,8.57824832 L53.9906784,11.8896212 Z M86.7431791,0 L80.1926662,0 C80.0673693,0 79.9599719,0.0962287191 79.9394116,0.227356387 L77.6056962,15.0583832 L72.5461682,0.179626942 C72.5091596,0.0721073868 72.412889,0 72.3045241,0 L65.7540113,0 C65.6287144,0 65.521317,0.0962287191 65.5007567,0.227356387 L61.5035917,25.6301986 C61.4905299,25.7118005 61.5135091,25.7951987 61.5657564,25.8570417 C61.6143755,25.914779 61.6840386,25.9473684 61.7566044,25.9473684 C61.761684,25.9473684 68.4220131,25.5439776 68.4220131,25.5439776 C68.5419885,25.5367926 68.6411617,25.4423601 68.6607545,25.3166212 L70.3317025,14.5969985 L73.8608182,25.0192103 C73.8992781,25.1331452 74.0025634,25.2021732 74.1169754,25.1990939 L82.9983011,24.6609829 C83.1180346,24.6537978 83.2172079,24.559622 83.2368006,24.4336265 L86.9964336,0.316656638 C87.0090117,0.237620784 86.9879676,0.15704527 86.9388648,0.0962287191 C86.8902457,0.0351555587 86.8184056,0 86.7431791,0 Z"/>
            </g>
        </g>
    </g>
</svg>