<?xml version="1.0" encoding="UTF-8"?>
<svg xmlns="http://www.w3.org/2000/svg" xmlns:xlink="http://www.w3.org/1999/xlink" width="128px" height="128px" viewBox="0 0 128 128" version="1.1">
<defs>
<clipPath id="clip2">
  <path d="M 14 17 L 114 17 L 114 118 L 14 118 Z M 14 17 "/>
</clipPath>
<clipPath id="clip3">
  <path d="M 114 67.25 C 114 39.636719 91.613281 17.25 64 17.25 C 36.386719 17.25 14 39.636719 14 67.25 C 14 94.863281 36.386719 117.25 64 117.25 C 91.613281 117.25 114 94.863281 114 67.25 Z M 114 67.25 "/>
</clipPath>
<linearGradient id="linear0" gradientUnits="userSpaceOnUse" x1="112" y1="512" x2="711.86438" y2="512" gradientTransform="matrix(-0.108253,-0.0625,0.0625,-0.108253,87.425627,151.42563)">
<stop offset="0" style="stop-color:rgb(100%,100%,0%);stop-opacity:1;"/>
<stop offset="1" style="stop-color:rgb(100%,100%,0%);stop-opacity:0;"/>
</linearGradient>
<linearGradient id="linear1" gradientUnits="userSpaceOnUse" x1="112" y1="512" x2="711.86438" y2="512" gradientTransform="matrix(0.108253,-0.0625,0.0625,0.108253,-23.425627,40.574374)">
<stop offset="0" style="stop-color:rgb(0%,100%,100%);stop-opacity:1;"/>
<stop offset="1" style="stop-color:rgb(0%,100%,100%);stop-opacity:0;"/>
</linearGradient>
<linearGradient id="linear2" gradientUnits="userSpaceOnUse" x1="112" y1="512" x2="711.86438" y2="512" gradientTransform="matrix(0.000000000000000008,0.125,-0.125,0.000000000000000008,128,-0.000000000000007838)">
<stop offset="0" style="stop-color:rgb(100%,0%,100%);stop-opacity:1;"/>
<stop offset="1" style="stop-color:rgb(100%,0%,100%);stop-opacity:0;"/>
</linearGradient>
<linearGradient id="linear3" gradientUnits="userSpaceOnUse" x1="1142.588013" y1="62.713322" x2="1280.89502" y2="200.873993" gradientTransform="matrix(0.435557,-0.0449241,0.0449241,0.435557,-495.312534,39.104073)">
<stop offset="0" style="stop-color:rgb(20.392157%,20.392157%,20.392157%);stop-opacity:1;"/>
<stop offset="1" style="stop-color:rgb(30.196078%,30.196078%,30.196078%);stop-opacity:1;"/>
</linearGradient>
<linearGradient id="linear4" gradientUnits="userSpaceOnUse" x1="1327.593994" y1="230.862305" x2="1324.910034" y2="89.862343" gradientTransform="matrix(0.00486961,0.43784,0.43784,-0.00486961,-21.681116,-494.898424)">
<stop offset="0" style="stop-color:rgb(33.333333%,58.823529%,91.764706%);stop-opacity:1;"/>
<stop offset="1" style="stop-color:rgb(33.333333%,58.823529%,91.764706%);stop-opacity:0;"/>
</linearGradient>
<clipPath id="clip1">
  <rect x="0" y="0" width="128" height="128"/>
</clipPath>
<g id="surface5" clip-path="url(#clip1)">
<g clip-path="url(#clip2)" clip-rule="nonzero">
<g clip-path="url(#clip3)" clip-rule="nonzero">
<path style=" stroke:none;fill-rule:nonzero;fill:rgb(0%,0%,0%);fill-opacity:0.47451;" d="M 114.8125 66.5 C 114.8125 38.4375 92.0625 15.6875 64 15.6875 C 35.9375 15.6875 13.1875 38.4375 13.1875 66.5 C 13.1875 94.5625 35.9375 117.3125 64 117.3125 C 92.0625 117.3125 114.8125 94.5625 114.8125 66.5 Z M 114.8125 66.5 "/>
</g>
</g>
<path style=" stroke:none;fill-rule:nonzero;fill:rgb(100%,100%,100%);fill-opacity:1;" d="M 114 64 C 114 36.386719 91.613281 14 64 14 C 36.386719 14 14 36.386719 14 64 C 14 91.613281 36.386719 114 64 114 C 91.613281 114 114 91.613281 114 64 Z M 114 64 "/>
<path style=" stroke:none;fill-rule:nonzero;fill:url(#linear0);" d="M 20.699219 39 C 6.890625 62.914062 15.085938 93.496094 39 107.300781 C 62.914062 121.109375 93.496094 112.914062 107.300781 89 C 121.109375 65.085938 112.914062 34.503906 89 20.699219 C 65.085938 6.890625 34.503906 15.085938 20.699219 39 Z M 20.699219 39 "/>
<path style=" stroke:none;fill-rule:nonzero;fill:url(#linear1);" d="M 107.300781 39 C 93.496094 15.085938 62.914062 6.890625 39 20.699219 C 15.085938 34.503906 6.890625 65.085938 20.699219 89 C 34.503906 112.914062 65.085938 121.109375 89 107.300781 C 112.914062 93.496094 121.109375 62.914062 107.300781 39 Z M 107.300781 39 "/>
<path style=" stroke:none;fill-rule:nonzero;fill:url(#linear2);" d="M 64 114 C 91.613281 114 114 91.613281 114 64 C 114 36.386719 91.613281 14 64 14 C 36.386719 14 14 36.386719 14 64 C 14 91.613281 36.386719 114 64 114 Z M 64 114 "/>
<path style=" stroke:none;fill-rule:nonzero;fill:rgb(0%,0%,0%);fill-opacity:0.47451;" d="M 28.09375 29.28125 C 25.207031 32.261719 22.699219 35.589844 20.636719 39.191406 C 27.945312 46.34375 35.820312 53.9375 39.027344 57.398438 C 44.460938 63.25 55.78125 71.800781 64.039062 70.816406 C 67.296875 73.109375 74.683594 78.246094 77.15625 79.464844 C 77.105469 80.644531 77.34375 81.839844 77.765625 83.03125 C 80.082031 89.507812 88.738281 93.71875 83.699219 100.625 C 93.617188 94.617188 96.253906 84.585938 92.054688 77.433594 C 89.429688 72.964844 85.609375 71.5 82.433594 72.566406 C 80.53125 70.414062 72.960938 64.128906 70.171875 61.835938 C 68.394531 53.84375 57.617188 45.597656 50.75 42.023438 C 46.554688 39.835938 36.957031 34.4375 28.09375 29.28125 Z M 28.09375 29.28125 "/>
<path style=" stroke:none;fill-rule:nonzero;fill:url(#linear3);" d="M 70.261719 67.890625 C 62.25 75.363281 46.839844 63.507812 40.332031 56.058594 C 33.644531 48.402344 8.660156 22.566406 6.832031 20.894531 C 5.007812 19.21875 3.550781 17.148438 5.167969 15.089844 C 6.847656 13.085938 9.171875 14.082031 11.1875 15.523438 C 13.203125 16.964844 43.636719 36.078125 52.511719 41.046875 C 61.140625 45.875 75.925781 58.507812 70.261719 67.890625 Z M 70.261719 67.890625 "/>
<path style=" stroke:none;fill-rule:nonzero;fill:url(#linear4);" d="M 83.113281 75.265625 C 51.847656 103.160156 26.277344 76.425781 22.3125 67.167969 C 24.65625 83.242188 35.488281 97.625 51.847656 103.160156 C 64.207031 107.339844 83.925781 107.242188 92.765625 91.316406 Z M 83.113281 75.265625 "/>
<path style=" stroke:none;fill-rule:nonzero;fill:rgb(74.901962%,74.901962%,74.901962%);fill-opacity:1;" d="M 82.984375 77.890625 C 80.433594 79.0625 80.707031 79.90625 78.441406 79.542969 C 76.875 79.289062 63.328125 69.019531 63.328125 69.019531 C 62.640625 67.371094 63.464844 65.105469 65.011719 63.3125 C 66.445312 61.425781 68.492188 60.152344 70.246094 60.484375 C 70.246094 60.484375 83.09375 71.625 83.664062 73.101562 C 84.488281 75.246094 83.601562 75.152344 82.984375 77.890625 Z M 82.984375 77.890625 "/>
<path style=" stroke:none;fill-rule:nonzero;fill:rgb(15.686275%,15.686275%,15.686275%);fill-opacity:1;" d="M 83.6875 100.613281 C 93.78125 94.902344 96.71875 84.957031 92.734375 77.679688 C 89.636719 72.027344 84.550781 70.957031 81.039062 73.691406 C 77.554688 76.402344 77.246094 79.636719 78.285156 82.84375 C 80.40625 89.390625 88.929688 93.859375 83.6875 100.613281 Z M 83.6875 100.613281 "/>
</g>
</defs>
<g id="surface1">
<use xlink:href="#surface5"/>
</g>
</svg>
