<?xml version="1.0" encoding="UTF-8" standalone="no"?>
<!DOCTYPE svg PUBLIC "-//W3C//DTD SVG 1.1//EN" "http://www.w3.org/Graphics/SVG/1.1/DTD/svg11.dtd">
<svg width="100%" height="100%" viewBox="0 0 512 512" version="1.1" xmlns="http://www.w3.org/2000/svg" xmlns:xlink="http://www.w3.org/1999/xlink" xml:space="preserve" xmlns:serif="http://www.serif.com/" style="fill-rule:evenodd;clip-rule:evenodd;stroke-linejoin:round;stroke-miterlimit:2;">
    <g id="pinguim" transform="matrix(0.735939,0,0,0.735939,-111.967,-112.238)">
        <g id="logo-color">
            <g id="pinguim1" serif:id="pinguim">
                <g transform="matrix(0.764601,0,0,0.764601,-851.321,-1888.38)">
                    <g transform="matrix(4.63745,-2.31873,-2.87816e-16,5.67091,-887.279,1306.68)">
                        <path d="M507.872,522.033C507.872,520.508 508.927,519.544 510.595,519.544L570.4,519.544C571.68,519.544 573.187,520.16 574.467,521.206L634.183,570.04C635.906,571.449 636.994,573.334 636.994,574.91L636.994,628.907C636.994,630.414 635.953,631.366 634.304,631.366L574.925,631.366C573.356,631.366 571.51,630.612 569.942,629.329L510.172,580.451C508.763,579.299 507.872,577.757 507.872,576.469L507.872,522.033Z"/>
                    </g>
                    <g transform="matrix(-1.19444,0,0,1.19444,8069.04,2471.82)">
                        <path d="M5409.69,383.725C5404.62,374.354 5401.15,363.161 5401.45,349.39C5397.47,271.796 5364.04,228.884 5315.4,213.412C5315.36,211.455 5320.88,207.812 5321.07,207.782C5321.22,207.623 5321.17,207.547 5320.98,207.536C5320.98,207.536 5312.58,207.182 5308.38,208.362C5303.5,209.734 5302.45,209.801 5302.45,209.801C5302.45,209.801 5307.11,196.453 5299.36,188.302C5299.14,188.062 5297.59,186.601 5296.37,188.432C5295.35,189.981 5292.83,191.619 5288.52,189.596C5288.52,189.596 5283.21,186.225 5276.25,184.542C5270.36,183.119 5257.35,184.999 5257.35,184.999C5257.35,184.999 5256.05,185.144 5256.75,186.118C5258.46,188.517 5271.55,199.339 5271.55,199.339C5271.96,199.726 5271.84,200.584 5270.46,200.516C5270.46,200.516 5258.11,200.007 5253.75,200.788C5248.97,201.645 5243.22,204.792 5243.22,204.792C5242.88,204.997 5242.98,205.506 5243.76,205.524C5244.79,205.501 5252.53,207.741 5256.6,209.423C5256.78,209.496 5257.11,209.64 5257.11,209.64C5257.11,209.64 5257.38,209.76 5257.51,209.818L5256.96,209.931C5201.17,221.53 5161.92,264.9 5157.58,349.39C5157.91,363.816 5154.08,375.413 5148.62,385.049C5142.18,452.224 5143.65,526.018 5161.17,613.24L5397.18,613.24C5412.16,536.791 5415.17,460.28 5409.69,383.725Z" style="fill:rgb(30,30,30);"/>
                    </g>
                    <g transform="matrix(0.551383,0,0,1.15042,-1206.16,2497.18)">
                        <path d="M5593.27,577.188C5462.44,669.121 5323.06,662.037 5176.45,577.188C5156.95,520.792 5124.82,449.056 5172.18,369.924C5173.11,368.405 5175.98,367.349 5179.28,367.315C5182.59,367.28 5185.55,368.275 5186.62,369.773C5213,407.446 5328.99,419.362 5384.86,418.207C5440.73,419.362 5556.73,407.446 5583.1,369.773C5584.17,368.275 5587.14,367.28 5590.44,367.315C5593.74,367.349 5596.62,368.405 5597.55,369.924C5644.9,449.056 5612.78,520.791 5593.27,577.188Z" style="fill:white;"/>
                    </g>
                    <g transform="matrix(-4.78197,-2.39099,2.96785e-16,5.84763,4501.32,1236.9)">
                        <path d="M571.91,628.035C572.615,628.505 573.573,628.971 574.179,628.967L630.682,628.605C632.479,628.593 633.613,627.54 633.613,625.885L633.613,574.092C633.613,573.241 631.627,572.219 630.682,572.225L574.179,572.587C573.167,572.593 572.142,573.17 571.539,573.954C570.932,572.89 570.09,571.819 569.258,571.138L512.754,524.932C511.809,524.159 509.823,523.562 509.823,524.407L509.823,575.797C509.823,577.439 510.958,579.405 512.754,580.873L569.258,627.08C569.983,627.673 571.212,628.008 571.91,628.035Z"/>
                    </g>
                    <g id="lateral--T-" serif:id="lateral (T)" transform="matrix(1.09256,0,0,1.09256,1196.32,2692.56)">
                        <g transform="matrix(1.2112,-0.605601,-7.51713e-17,1.48112,-167.518,-6.08649)">
                            <path d="M629.602,572.433C630.767,572.433 632.152,573.05 633.26,574.064C634.369,575.077 635.043,576.343 635.043,577.409L635.043,625.876C635.043,628.205 633.434,629.677 630.886,629.677L577.875,629.677C576.709,629.677 575.325,629.06 574.217,628.046C573.108,627.033 572.433,625.767 572.433,624.702L572.433,576.234C572.433,573.905 574.043,572.433 576.59,572.433L629.602,572.433ZM701.79,572.433C702.956,572.433 704.34,573.05 705.449,574.064C706.557,575.077 707.232,576.343 707.232,577.409L707.232,625.876C707.232,628.205 705.622,629.677 703.075,629.677L650.063,629.677C648.898,629.677 647.514,629.06 646.405,628.046C645.297,627.033 644.622,625.767 644.622,624.702L644.622,576.234C644.622,573.905 646.231,572.433 648.779,572.433L701.79,572.433ZM701.79,636.43C702.956,636.43 704.34,637.047 705.449,638.061C706.557,639.074 707.232,640.34 707.232,641.405L707.232,689.873C707.232,692.202 705.622,693.673 703.075,693.673L650.063,693.673C648.898,693.673 647.514,693.057 646.405,692.043C645.297,691.03 644.622,689.764 644.622,688.698L644.622,640.231C644.622,637.902 646.231,636.43 648.779,636.43L701.79,636.43ZM701.79,700.427C702.956,700.427 704.34,701.044 705.449,702.057C706.557,703.071 707.232,704.336 707.232,705.402L707.232,753.87C707.232,756.199 705.622,757.67 703.075,757.67L650.063,757.67C648.898,757.67 647.514,757.053 646.405,756.04C645.297,755.026 644.622,753.761 644.622,752.695L644.622,704.228C644.622,701.898 646.231,700.427 648.779,700.427L701.79,700.427ZM773.979,572.433C775.144,572.433 776.528,573.05 777.637,574.064C778.746,575.077 779.42,576.343 779.42,577.409L779.42,625.876C779.42,628.205 777.811,629.677 775.263,629.677L722.252,629.677C721.086,629.677 719.702,629.06 718.594,628.046C717.485,627.033 716.81,625.767 716.81,624.702L716.81,576.234C716.81,573.905 718.42,572.433 720.967,572.433L773.979,572.433Z" style="fill:white;"/>
                        </g>
                        <g transform="matrix(1.2112,-0.605601,-7.51713e-17,1.48112,-167.518,88.7003)">
                            <path d="M629.602,572.433C630.767,572.433 632.152,573.05 633.26,574.064C634.369,575.077 635.043,576.343 635.043,577.409L635.043,625.876C635.043,628.205 633.434,629.677 630.886,629.677L577.875,629.677C576.709,629.677 575.325,629.06 574.217,628.046C573.108,627.033 572.433,625.767 572.433,624.702L572.433,576.234C572.433,573.905 574.043,572.433 576.59,572.433L629.602,572.433Z" style="fill:rgb(0,186,22);"/>
                        </g>
                        <g transform="matrix(1.2112,-0.605601,-7.51713e-17,1.48112,-167.518,183.487)">
                            <path d="M629.602,572.433C630.767,572.433 632.152,573.05 633.26,574.064C634.369,575.077 635.043,576.343 635.043,577.409L635.043,625.876C635.043,628.205 633.434,629.677 630.886,629.677L577.875,629.677C576.709,629.677 575.325,629.06 574.217,628.046C573.108,627.033 572.433,625.767 572.433,624.702L572.433,576.234C572.433,573.905 574.043,572.433 576.59,572.433L629.602,572.433Z" style="fill:rgb(255,231,14);"/>
                        </g>
                        <g transform="matrix(1.2112,-0.605601,-7.51713e-17,1.48112,7.35189,1.26539)">
                            <path d="M629.602,572.433C630.767,572.433 632.152,573.05 633.26,574.064C634.369,575.077 635.043,576.343 635.043,577.409L635.043,625.876C635.043,628.205 633.434,629.677 630.886,629.677L577.875,629.677C576.709,629.677 575.325,629.06 574.217,628.046C573.108,627.033 572.433,625.767 572.433,624.702L572.433,576.234C572.433,573.905 574.043,572.433 576.59,572.433L629.602,572.433Z" style="fill:rgb(255,4,4);"/>
                        </g>
                        <g transform="matrix(1.2112,-0.605601,-7.51713e-17,1.48112,7.35189,96.0522)">
                            <path d="M629.602,572.433C630.767,572.433 632.152,573.05 633.26,574.064C634.369,575.077 635.043,576.343 635.043,577.409L635.043,625.876C635.043,628.205 633.434,629.677 630.886,629.677L577.875,629.677C576.709,629.677 575.325,629.06 574.217,628.046C573.108,627.033 572.433,625.767 572.433,624.702L572.433,576.234C572.433,573.905 574.043,572.433 576.59,572.433L629.602,572.433Z" style="fill:rgb(255,159,4);"/>
                        </g>
                    </g>
                    <g id="lateral--L-" serif:id="lateral (L)" transform="matrix(-1.09251,0,0,1.09251,2338.35,2692.25)">
                        <g transform="matrix(1.2112,-0.605601,-7.51713e-17,1.48112,-167.518,-6.08649)">
                            <path d="M629.601,572.433C630.767,572.433 632.151,573.05 633.26,574.064C634.369,575.077 635.043,576.343 635.043,577.409L635.043,625.876C635.043,628.205 633.434,629.677 630.886,629.677L577.875,629.677C576.71,629.677 575.325,629.06 574.217,628.046C573.108,627.033 572.433,625.767 572.433,624.701L572.433,576.234C572.433,573.905 574.043,572.433 576.591,572.433L629.601,572.433Z" style="fill:rgb(24,80,233);"/>
                        </g>
                        <g transform="matrix(1.2112,-0.605601,-7.51713e-17,1.48112,-167.518,88.7003)">
                            <path d="M629.601,572.433C630.767,572.433 632.151,573.05 633.26,574.064C634.369,575.077 635.043,576.343 635.043,577.409L635.043,625.876C635.043,628.205 633.434,629.677 630.886,629.677L577.875,629.677C576.71,629.677 575.325,629.06 574.217,628.046C573.108,627.033 572.433,625.767 572.433,624.701L572.433,576.234C572.433,573.905 574.043,572.433 576.591,572.433L629.601,572.433Z" style="fill:rgb(255,4,4);"/>
                        </g>
                        <g transform="matrix(1.2112,-0.605601,-7.51713e-17,1.48112,-167.518,183.487)">
                            <path d="M629.601,572.433L576.591,572.433C574.043,572.433 572.433,573.905 572.433,576.234L572.433,624.701C572.433,625.767 573.108,627.033 574.217,628.046C575.325,629.06 576.71,629.677 577.875,629.677L630.886,629.677C633.434,629.677 635.043,628.205 635.043,625.876L635.043,577.409C635.043,576.343 634.369,575.077 633.26,574.064C632.151,573.05 630.767,572.433 629.601,572.433ZM701.79,508.437L648.779,508.437C646.231,508.437 644.622,509.908 644.622,512.238L644.622,560.705C644.622,561.77 645.297,563.036 646.405,564.05C647.514,565.063 648.898,565.68 650.064,565.68L703.075,565.68C705.622,565.68 707.232,564.209 707.232,561.879L707.232,513.412C707.232,512.346 706.557,511.081 705.448,510.067C704.34,509.054 702.956,508.437 701.79,508.437Z" style="fill:rgb(0,186,22);"/>
                        </g>
                        <g transform="matrix(1.2112,-0.605601,-7.51713e-17,1.48112,-80.083,-49.8039)">
                            <path d="M629.601,572.433C630.767,572.433 632.151,573.05 633.26,574.064C634.369,575.077 635.043,576.343 635.043,577.409L635.043,625.876C635.043,628.205 633.434,629.677 630.886,629.677L577.875,629.677C576.71,629.677 575.325,629.06 574.217,628.046C573.108,627.033 572.433,625.767 572.433,624.701L572.433,576.234C572.433,573.905 574.043,572.433 576.591,572.433L629.601,572.433Z" style="fill:rgb(255,231,14);"/>
                        </g>
                        <g transform="matrix(1.2112,-0.605601,-7.51713e-17,1.48112,-80.083,139.77)">
                            <path d="M629.601,572.433L576.591,572.433C574.043,572.433 572.433,573.905 572.433,576.234L572.433,624.701C572.433,625.767 573.108,627.033 574.217,628.046C575.325,629.06 576.71,629.677 577.875,629.677L630.886,629.677C633.434,629.677 635.043,628.205 635.043,625.876L635.043,577.409C635.043,576.343 634.369,575.077 633.26,574.064C632.151,573.05 630.767,572.433 629.601,572.433ZM701.79,444.44L648.779,444.44C646.231,444.44 644.622,445.911 644.622,448.241L644.622,496.708C644.622,497.774 645.297,499.039 646.405,500.053C647.514,501.066 648.898,501.683 650.064,501.683L703.075,501.683C705.622,501.683 707.232,500.212 707.232,497.882L707.232,449.415C707.232,448.35 706.557,447.084 705.448,446.07C704.34,445.057 702.956,444.44 701.79,444.44ZM701.79,508.437L648.779,508.437C646.231,508.437 644.622,509.908 644.622,512.238L644.622,560.705C644.622,561.77 645.297,563.036 646.405,564.05C647.514,565.063 648.898,565.68 650.064,565.68L703.075,565.68C705.622,565.68 707.232,564.209 707.232,561.879L707.232,513.412C707.232,512.346 706.557,511.081 705.448,510.067C704.34,509.054 702.956,508.437 701.79,508.437ZM701.79,572.433L648.779,572.433C646.231,572.433 644.622,573.905 644.622,576.234L644.622,624.701C644.622,625.767 645.297,627.033 646.405,628.046C647.514,629.06 648.898,629.677 650.064,629.677L703.075,629.677C705.622,629.677 707.232,628.205 707.232,625.876L707.232,577.409C707.232,576.343 706.557,575.077 705.448,574.064C704.34,573.05 702.956,572.433 701.79,572.433Z" style="fill:white;"/>
                        </g>
                    </g>
                </g>
                <g id="rosto" transform="matrix(0.49844,0,0,0.49844,-2907.99,221.337)">
                    <g transform="matrix(1,0,0,-1,6447.28,969.057)">
                        <path d="M278.625,780.477C256.125,783.926 239.707,803.191 235.438,831.16C234.008,840.52 234.918,859.789 237.203,868.5C247.004,905.883 274.707,930 307.852,930C321.836,930 332.672,926.164 343.871,917.254C366.812,898.996 377.141,866.652 369.492,837C366.148,824.043 365.98,823.781 355.875,816.145C350.926,812.402 343.094,806.355 338.473,802.711C324.547,791.719 312.234,785.219 299.637,782.207C293.531,780.75 282.68,779.855 278.625,780.477ZM470.5,781.109C454.332,784.043 440.477,791.34 422.625,806.316C418.086,810.121 411.277,815.543 407.492,818.363C399.801,824.094 399.062,825.367 395.801,838.492C393.523,847.656 393.559,865.328 395.875,874.754C401.574,897.965 415.285,915.77 434.32,924.691C442.844,928.688 448.691,929.977 458.25,929.977C476.414,929.973 492.086,923.223 505.961,909.426C524.02,891.477 533.789,863.223 531.105,836.73C529.113,817.09 523.785,804.383 512.941,793.414C501.641,781.984 487.797,777.973 470.5,781.109Z" style="fill:white;fill-rule:nonzero;"/>
                    </g>
                    <g transform="matrix(1,0,0,-1,6447.28,897.534)">
                        <path d="M370.531,620.856C356.367,622.875 336.309,633.004 318.75,646.997C305.59,657.481 289.129,676.344 287.512,682.789C286.961,684.985 288.477,690.461 289.73,690.797C290.223,690.93 292.82,691.442 295.5,691.934C313.297,695.2 331.918,704.875 354.719,722.7C371.867,736.106 378.992,739.5 386.453,737.832C393.582,736.235 398.055,733.415 415.234,719.668C435.309,703.606 446.418,697.704 466.562,692.395C472.867,690.731 476.996,689.25 477.621,688.422C478.254,687.582 478.5,685.805 478.297,683.547C477.852,678.688 474.363,673.645 464.027,662.946C445.758,644.024 429.113,632.61 408.645,624.965C396.398,620.391 383.508,619 370.531,620.856ZM401.504,639.766C418.258,644.098 435.672,654.907 446.664,667.786C454.496,676.969 454.195,679.868 445.688,677.161C418.828,668.614 378.457,665.481 351.375,669.84C342.785,671.223 324.574,675.75 319.328,677.805C315.574,679.274 313.902,679.106 313.164,677.188C312.531,675.539 314.277,673.157 321.852,665.329C344.406,642.012 373.766,632.59 401.504,639.766Z" style="fill:rgb(252,170,32);fill-rule:nonzero;"/>
                    </g>
                    <g transform="matrix(1,0,0,-1,6447.28,969.776)">
                        <path d="M369,710.883C361.945,712.446 353.625,715.223 349.219,717.481L346.348,718.953L351.684,721.758C360.422,726.348 369.691,728.391 382.125,728.457C390.59,728.504 393.914,728.196 399.281,726.86C405.512,725.309 418.5,719.891 418.5,718.844C418.5,717.875 408.133,713.723 401.258,711.946C391.328,709.375 377.824,708.93 369,710.883Z" style="fill:rgb(227,75,48);fill-rule:nonzero;"/>
                    </g>
                    <g transform="matrix(1,0,0,-1,6447.28,867.502)">
                        <path d="M302.625,720.668C293.145,725.187 287.434,738.269 289.34,751.109C290.77,760.726 295.652,768.511 302.941,772.8C305.852,774.507 307.246,774.82 312.004,774.82C316.773,774.82 318.16,774.511 321.09,772.785C325.504,770.191 328.961,766.246 331.43,760.98C333.191,757.222 333.301,738.629 330.832,733.609C326.215,724.23 319.941,719.593 311.254,719.136C307.312,718.929 305.664,719.222 302.625,720.668ZM447.98,720.406C443.98,722.222 438.594,727.172 436.23,731.207C431.305,739.609 430.559,752.707 434.512,761.32C440.684,774.757 454.605,779.246 465.164,771.195C474.195,764.304 478.879,752.082 476.996,740.308C475.523,731.09 469.883,722.843 463.105,720.011C459.43,718.476 451.789,718.675 447.98,720.406Z" style="fill-rule:nonzero;"/>
                    </g>
                    <g transform="matrix(1,0,0,1,-3.217,-6.81587)">
                        <path d="M6767.16,110.764C6771.89,110.764 6775.73,115.853 6775.73,122.122C6775.73,128.391 6771.89,133.48 6767.16,133.48C6762.44,133.48 6758.6,128.391 6758.6,122.122C6758.6,115.853 6762.44,110.764 6767.16,110.764ZM6909.97,110.764C6914.7,110.764 6918.54,115.853 6918.54,122.122C6918.54,128.391 6914.7,133.48 6909.97,133.48C6905.24,133.48 6901.4,128.391 6901.4,122.122C6901.4,115.853 6905.24,110.764 6909.97,110.764Z" style="fill:white;"/>
                    </g>
                </g>
                <g id="braços" transform="matrix(-0.913272,0,0,0.913272,5318.27,1.57827)">
                    <path d="M5408.99,555.914C5339.62,589.25 5370.52,624.679 5424.91,613.24C5424.91,613.24 5493.43,597.658 5491.24,524.423C5485.88,487.716 5468.47,453.615 5439.39,420.419C5432.03,410.448 5416.67,398.735 5407.91,380.232C5411.63,409.674 5409.05,504.388 5409.05,504.388L5412.75,510.045C5412.75,510.045 5415.68,514.829 5417.53,520.343C5424.19,540.197 5412.84,552.463 5408.99,555.914ZM5148.48,559.037C5144.63,555.586 5133.28,543.32 5139.95,523.465C5141.8,517.952 5144.73,513.167 5144.73,513.167L5148.42,507.51C5148.42,507.51 5145.84,412.797 5149.56,383.355C5140.8,401.857 5125.45,413.57 5118.09,423.542C5089,456.737 5071.59,490.839 5066.23,527.545C5064.04,600.78 5132.56,616.362 5132.56,616.362C5186.96,627.802 5217.86,592.372 5148.48,559.037Z" style="fill:rgb(30,30,30);"/>
                </g>
            </g>
        </g>
    </g>
</svg>
