<?xml version="1.0" encoding="utf-8"?>
<svg version="1.1" id="Mullvad_VPN_Logo_Color_Pos" xmlns="http://www.w3.org/2000/svg" xmlns:xlink="http://www.w3.org/1999/xlink"
	 x="0px" y="0px" viewBox="0 0 400 400" style="enable-background:new 0 0 400 400;" xml:space="preserve">
<style type="text/css">
	.background{fill-rule:evenodd;clip-rule:evenodd;fill:#192E45;}
	.fur{fill-rule:evenodd;clip-rule:evenodd;fill:#D2943B;}
	.nose{fill-rule:evenodd;clip-rule:evenodd;fill:#FFCD86;}
	.helmet{fill-rule:evenodd;clip-rule:evenodd;fill:#FFD524;}
	.lamp-light{fill:#FFFFFF;}
	.lamp-ring{fill:#192E45;}
	.text{fill:#192E45;}
</style>
<g id="logo">
	<g id="mole">
		<path id="bg" class="background" d="M74,198.1c0,69.6,56.5,126,126,126
			s126-56.4,126-126s-56.4-126-126-126S74,128.4,74,198.1L74,198.1L74,198.1L74,198.1z"/>
		<g id="body">
			<path id="fur" class="fur" d="M97.9,168.7l-7.1,14.4l9.6-13.4
				c0,0.1-0.6,19.3-0.6,19.3l2.7-14.5c7.2,13.7,23.1,34.8,45.4,50.5c1.7,1.2,3.9,3.3,4.6,4.1c0,0,21.3,10.8,54.1-14.2
				c0.3-0.2,0.7-0.4,1-0.6l0.5,0.3l7.2,4.8c-2.5-0.7-7.3-1.9-7.3-1.9c-15.8,18.2-41.5,21.2-55.3,12c-0.6-0.4-4,1-4.6,3
				c-0.4,1.1,0,2.3,0.5,3.2c2.8,5.2,7,4.7,5,10.8c-1.4,3.3-3.4,6.5-5.6,9.5c-4.6,6.2-11.8,11.7-11.1,15
				c32.6,40.2,106.1,34.6,134.1-1.3c-0.4-5.2-8.6-7.7-14.3-20.4c1.6,0.5,4,1.2,4,1.1c0-0.1-6.8-11.1-7.1-12.2l4.4,0.3
				c0,0-5.8-7.2-6-7.9l5.9-0.8c0,0-7.4-8.5-7.5-9.2l7.5,1.2l-8.2-9.9h3.9l-4.6-6.7l-37.3-14.7c-14.3-8.9-27-19.8-36.6-28.2
				l-19.3-9.4c-18.5-1.4-35.8-0.9-46.4,1.2l6.8-11.6l-9.9,11.8c-0.7-0.2-1.4-0.4-1.4-0.4l0.7-15l-3.3,14L97.9,168.7z"/>
			<path id="nose" class="nose" d="M102.4,152.9c-4.9-2.3-10.6,1-11.6,5.5
				c-1.2,4.3,1.8,9.6,7.1,10.3C102.9,165.6,107.2,157.6,102.4,152.9z"/>
		</g>
		<g id="helmet">
			<path id="helmet" class="helmet" d="M175.2,141.9c-1.5-4.1-1.1-9.4,1-14.4
				c3-6.9,8.7-11.5,14.1-11.5c1.1,0,2.1,0.2,3.1,0.6c3.1-2.8,6.7-5.1,10.7-6.7c22-8.8,54.3,6.9,62.6,28.5c4,10.5,2.8,21.9-0.6,32.4
				c-2.8,8.6-13,21-9.2,30.3c-1.5-0.4-32.8-11-41.8-15.8c-14.1-8.8-26.7-19.6-36.2-27.9l-0.3-0.3l-32-15.2c-0.4-0.2-0.8-0.4-1.1-0.6
				C149.9,141.6,167.4,143.7,175.2,141.9"/>
			<g id="helmet_lamp">
				<path id="lamp-light" class="lamp-light" d="M184.6,145.6c-0.9,0-1.6-0.2-2.3-0.5c-1.6-0.7-2.8-2-3.6-4c-1.4-3.4-1-8.1,0.9-12.5
					c2.5-5.6,7.3-9.7,11.5-9.7c0.8,0,1.6,0.2,2.4,0.5c2.1,0.9,3.6,3,4.1,6c0.6,3.2,0.1,6.9-1.5,10.4
					C193.7,141.4,188.8,145.6,184.6,145.6z"/>
				
				<path id="lamp-ring" class="lamp-ring" d="M191.1,120.6c0.6,0,1.2,0.1,1.8,0.4c1.6,0.7,2.8,2.5,3.2,4.9c0.5,2.9,0.1,6.3-1.4,9.5
					c-2.2,5.1-6.5,8.8-10.1,8.8c-0.6,0-1.2-0.1-1.7-0.3l0,0l0,0c-1.5-0.6-2.3-2-2.7-3.1c-1.2-3-0.9-7.4,0.8-11.4
					C183.2,124.2,187.5,120.6,191.1,120.6 M191.1,117.6c-4.8,0-10.1,4.4-12.9,10.7c-2.1,4.7-2.4,9.8-0.9,13.7
						c0.9,2.3,2.4,3.9,4.3,4.8c0.9,0.4,1.9,0.6,3,0.6c4.8,0,10.1-4.4,12.8-10.7c1.7-3.8,2.2-7.8,1.6-11.3s-2.5-5.8-4.9-7.1
					C193.2,117.8,192.1,117.6,191.1,117.6L191.1,117.6z"/>
				
			</g>
		</g>
	</g>
</g>
</svg>
