<svg style="enable-background:new 0 0 256 256;" version="1.1" viewBox="0 0 64 64" xml:space="preserve" xmlns="http://www.w3.org/2000/svg" xmlns:xlink="http://www.w3.org/1999/xlink" width="64" height="64"><style type="text/css">.st0{fill:#D5E2EB;}
	.st1{fill:none;stroke:#00A388;stroke-width:4;stroke-miterlimit:10;}
	.st2{fill:#FFFFFF;}
	.st3{fill:#CC4E47;}
	.st4{fill:#EA685E;}
	.st5{fill:#4B687F;}
	.st6{fill:#2C3E50;}
	.st7{fill:#3E5063;}
	.st8{fill:#FFAB80;}
	.st9{filter:url(#Adobe_OpacityMaskFilter);}
	.st10{mask:url(#SVGID_2_);}
	.st11{fill:#F09A79;}
	.st12{fill:#00886F;}
	.st13{fill:#00A388;}
	.st14{fill:none;stroke:#3E5063;stroke-width:4;stroke-miterlimit:10;}
	.st15{fill:#FFD766;}
	.st16{fill:#5488B7;}
	.st17{fill:#8C623B;}
	.st18{fill:#E6E6E6;stroke:#3E5063;stroke-width:16;stroke-miterlimit:10;}
	.st19{opacity:0.6;}
	.st20{fill:#E6E6E6;}
	.st21{fill:none;stroke:#D5E2EB;stroke-width:5;stroke-miterlimit:10;}
	.st22{fill:#FFEC9F;}
	.st23{fill:#603813;}
	.st24{filter:url(#Adobe_OpacityMaskFilter_1_);}
	.st25{mask:url(#SVGID_1_);}</style><g id="Layer_2"><path class="st0" cx="128" cy="128" r="120" d="M62 32A30 30 0 0 1 32 62A30 30 0 0 1 2 32A30 30 0 0 1 62 32z"/></g><g id="Layer_1"><g><g><g><path class="st12" d="M32 50.425c-6.904 0 -12.5 -5.596 -12.5 -12.5v-7.663c0 -1.752 1.421 -3.173 3.173 -3.173h18.654c1.752 0 3.173 1.421 3.173 3.173v7.663c0 6.904 -5.596 12.5 -12.5 12.5"/></g></g><g><path class="st13" d="M32 47.925c-6.904 0 -12.5 -5.596 -12.5 -12.5V29.58c0 -1.752 1.421 -3.173 3.173 -3.173h18.654c1.752 0 3.173 1.421 3.173 3.173v5.846c0 6.904 -5.596 12.5 -12.5 12.5"/></g><g><g><path class="st5" d="M40.295 21.872v4.535h-3.663v-4.535c0 -1.238 -0.482 -2.402 -1.357 -3.277s-2.038 -1.355 -3.275 -1.355c-2.555 0 -4.633 2.078 -4.633 4.633v4.535H23.705v-4.535c0 -4.575 3.72 -8.297 8.295 -8.297 2.217 0 4.3 0.865 5.867 2.433 1.565 1.565 2.428 3.647 2.428 5.865"/></g></g><g><g><path class="st7" d="M30.321 36.382a1.75 1.75 0 0 0 -0.059 0.448v3.778A1.738 1.738 0 0 0 32 42.345a1.738 1.738 0 0 0 1.738 -1.738v-3.778c0 -0.155 -0.021 -0.305 -0.059 -0.448a2.868 2.868 0 0 0 1.196 -2.333c0 -1.588 -1.287 -2.875 -2.875 -2.875s-2.875 1.287 -2.875 2.875a2.868 2.868 0 0 0 1.196 2.333"/></g></g><g><path class="st7" height="7.57007" width="14.64996" x="94.82001" y="98.05828" d="M23.705 24.515H27.367V26.407H23.705V24.515z"/></g><g><path class="st7" height="7.57007" width="14.64996" x="146.53003" y="98.05828" d="M36.633 24.515H40.295V26.407H36.633V24.515z"/></g></g></g></svg>