<?xml version="1.0" encoding="UTF-8" standalone="no"?>
<!-- Created with Inkscape (http://www.inkscape.org/) -->

<svg
   version="1.1"
   id="svg1"
   width="24"
   height="24"
   viewBox="0 0 24 24"
   sodipodi:docname="ashyterm.svg"
   xml:space="preserve"
   inkscape:version="1.4.2 (ebf0e940d0, 2025-05-08)"
   inkscape:export-filename="../tac-writer.svg"
   inkscape:export-xdpi="960"
   inkscape:export-ydpi="960"
   xmlns:inkscape="http://www.inkscape.org/namespaces/inkscape"
   xmlns:sodipodi="http://sodipodi.sourceforge.net/DTD/sodipodi-0.dtd"
   xmlns="http://www.w3.org/2000/svg"
   xmlns:svg="http://www.w3.org/2000/svg"><defs
     id="defs1"><linearGradient
       x1="22.1875"
       y1="23.0625"
       x2="5.318624"
       y2="5.3239861"
       gradientUnits="userSpaceOnUse"
       gradientTransform="scale(0.75)"
       spreadMethod="pad"
       id="linearGradient3"><stop
         style="stop-opacity:1;stop-color:#aa8800"
         offset="0"
         id="stop1" /><stop
         style="stop-opacity:1;stop-color:#ffd42a"
         offset="0.997054"
         id="stop2" /><stop
         style="stop-opacity:1;stop-color:#002255"
         offset="1"
         id="stop3" /></linearGradient></defs><sodipodi:namedview
     id="namedview1"
     pagecolor="#ffffff"
     bordercolor="#000000"
     borderopacity="0.25"
     inkscape:showpageshadow="2"
     inkscape:pageopacity="0.0"
     inkscape:pagecheckerboard="0"
     inkscape:deskcolor="#d1d1d1"
     inkscape:zoom="5.7484473"
     inkscape:cx="-32.704483"
     inkscape:cy="3.3922203"
     inkscape:window-width="1920"
     inkscape:window-height="1005"
     inkscape:window-x="0"
     inkscape:window-y="0"
     inkscape:window-maximized="1"
     inkscape:current-layer="g1"><inkscape:page
       x="0"
       y="0"
       inkscape:label="1"
       id="page1"
       width="24"
       height="24"
       margin="0"
       bleed="0" /></sodipodi:namedview><g
     id="g1"
     inkscape:groupmode="layer"
     inkscape:label="1"><path
       id="path3"
       d="m 5.699,0.75 h 6.602 c 2.742,0 4.949,2.207 4.949,4.949 v 6.602 c 0,2.742 -2.207,4.949 -4.949,4.949 H 5.699 C 2.957,17.25 0.75,15.043 0.75,12.301 V 5.699 C 0.75,2.957 2.957,0.75 5.699,0.75 Z"
       style="fill:url(#linearGradient3);stroke:none"
       transform="scale(1.3333333)" /><path
       style="fill:#002255;stroke:none"
       d="m 8.7733211,2.6500001 v 0.88 h 6.4533329 v -0.88 H 8.7733211 m 0,1.6133332 v 0.88 h 6.4533329 v -0.88 H 8.7733211 M 11.633321,21.35 h 0.07333 c 0,-2.034942 0.324299,-4.37187 -0.01086,-6.376039 -0.08313,-0.497094 -0.775933,-0.66083 -0.852387,-1.250628 -0.08368,-0.645527 0.516702,-1.275864 1.156584,-1.275864 0.639882,0 1.240263,0.630337 1.156585,1.275864 -0.07645,0.589798 -0.769257,0.753534 -0.852387,1.250628 -0.335163,2.004168 -0.01086,4.341097 -0.01086,6.376039 0.324847,-0.606549 0.443166,-1.396326 0.660057,-2.053333 0.499482,-1.51304 1.007767,-3.022422 1.66969,-4.473334 0.299229,-0.655899 0.611684,-1.288515 0.985191,-1.906666 0.16733,-0.276931 0.508493,-0.619086 0.525386,-0.953334 0.01656,-0.327709 -0.223034,-0.722457 -0.330735,-1.026666 C 15.57538,10.293985 15.369659,9.6233149 15.226659,8.9566669 15.07647,8.2565019 14.941192,7.5455791 14.862595,6.8328858 c -0.02735,-0.248018 0.009,-0.7115524 -0.15125,-0.9119703 -0.137754,-0.1722711 -0.465299,-0.117496 -0.658019,-0.1175822 h -1.906667 -2.053333 c -0.2136599,0 -0.5825299,-0.066756 -0.7624179,0.075371 -0.280663,0.2217479 -0.191717,1.1286638 -0.246199,1.4646288 -0.173788,1.0716728 -0.414591,2.1144238 -0.730899,3.1533339 -0.131997,0.433539 -0.516031,1.01072 -0.486683,1.466666 0.0199,0.309184 0.339728,0.622523 0.495453,0.88 0.358693,0.59307 0.67273,1.201478 0.957577,1.833334 0.9478759,2.102607 1.8445169,4.408811 2.3131689,6.673333 z"
       id="path981" /></g></svg>
