<?xml version="1.0" encoding="UTF-8" standalone="no"?>
<!-- Created with Inkscape (http://www.inkscape.org/) -->

<svg
   version="1.1"
   id="svg1"
   width="24"
   height="24"
   viewBox="0 0 24 24"
   sodipodi:docname="tac-writer.svg"
   xml:space="preserve"
   inkscape:version="1.4.2 (ebf0e940d0, 2025-05-08)"
   inkscape:export-filename="/home/narayans/Downloads/zash3.svg"
   inkscape:export-xdpi="960"
   inkscape:export-ydpi="960"
   xmlns:inkscape="http://www.inkscape.org/namespaces/inkscape"
   xmlns:sodipodi="http://sodipodi.sourceforge.net/DTD/sodipodi-0.dtd"
   xmlns="http://www.w3.org/2000/svg"
   xmlns:svg="http://www.w3.org/2000/svg"><defs
     id="defs1"><linearGradient
       id="linearGradient41"
       inkscape:swatch="gradient"><stop
         style="stop-color:#000000;stop-opacity:1;"
         offset="0"
         id="stop261" /><stop
         style="stop-color:#000000;stop-opacity:0;"
         offset="1"
         id="stop262" /></linearGradient><linearGradient
       x1="22.1875"
       y1="23.0625"
       x2="3.2276375"
       y2="3.0725682"
       gradientUnits="userSpaceOnUse"
       gradientTransform="scale(0.75)"
       spreadMethod="pad"
       id="linearGradient3"><stop
         style="stop-opacity:1;stop-color:#1a1a1a"
         offset="0"
         id="stop1" /><stop
         style="stop-opacity:1;stop-color:#333333"
         offset="1"
         id="stop2" /></linearGradient></defs><sodipodi:namedview
     id="namedview1"
     pagecolor="#ffffff"
     bordercolor="#000000"
     borderopacity="0.25"
     inkscape:showpageshadow="2"
     inkscape:pageopacity="0.0"
     inkscape:pagecheckerboard="0"
     inkscape:deskcolor="#d1d1d1"
     inkscape:zoom="5.7484473"
     inkscape:cx="-32.704483"
     inkscape:cy="3.3922203"
     inkscape:window-width="1920"
     inkscape:window-height="1005"
     inkscape:window-x="0"
     inkscape:window-y="0"
     inkscape:window-maximized="1"
     inkscape:current-layer="g1"><inkscape:page
       x="0"
       y="0"
       width="24"
       height="24"
       id="page2"
       margin="0"
       bleed="0" /></sodipodi:namedview><g
     id="g1"
     inkscape:groupmode="layer"
     inkscape:label="1"><path
       id="path3"
       d="m 5.699,0.75 h 6.602 c 2.742,0 4.949,2.207 4.949,4.949 v 6.602 c 0,2.742 -2.207,4.949 -4.949,4.949 H 5.699 C 2.957,17.25 0.75,15.043 0.75,12.301 V 5.699 C 0.75,2.957 2.957,0.75 5.699,0.75 Z"
       style="fill:url(#linearGradient3);stroke:none"
       transform="scale(1.3333333)" /><path
       style="fill:#00ffff;stroke-width:1.99573"
       d="m 19.290689,18.25715 c 0.0081,-0.01304 0.01496,-0.156165 0.01578,-0.318405 0.001,-0.240416 -0.0042,-0.298407 -0.02818,-0.313441 -0.01757,-0.01103 -0.692281,-0.01716 -1.681479,-0.01537 l -1.652002,0.0031 -0.0011,0.04118 c -0.0014,0.0494 -0.0012,0.614511 1.8e-4,0.621603 5.54e-4,0.0028 0.750581,0.005 1.666725,0.005 1.258266,0 1.669251,-0.0057 1.680182,-0.02342 z m -6.159144,-0.02492 c 0.02982,-0.01557 0.261981,-0.183528 0.515941,-0.373289 0.253963,-0.189753 0.505474,-0.375667 0.558921,-0.413132 0.05346,-0.03745 0.126547,-0.09044 0.162432,-0.117723 0.03588,-0.02727 0.114013,-0.08533 0.173609,-0.128981 0.405081,-0.296732 0.891401,-0.675158 0.942621,-0.733497 0.09435,-0.107422 0.107035,-0.28194 0.02915,-0.40078 -0.04773,-0.07285 -0.813057,-0.655004 -2.149152,-1.634765 -0.257803,-0.189056 -0.274416,-0.197618 -0.382716,-0.197618 -0.163013,0 -0.29345,0.128552 -0.306263,0.301798 -0.0097,0.131374 0.02974,0.200217 0.176741,0.308389 0.058,0.04268 0.247146,0.184046 0.420341,0.314137 0.330577,0.248323 0.571625,0.426849 1.008923,0.747235 0.145031,0.106247 0.290477,0.216413 0.323219,0.2448 0.03274,0.02838 0.07207,0.05867 0.08742,0.06729 0.0494,0.02778 0.01036,0.06975 -0.229297,0.246633 -0.129327,0.09546 -0.404803,0.299074 -0.612171,0.452491 -0.20737,0.153411 -0.433886,0.320234 -0.50337,0.370712 -0.06948,0.05046 -0.158779,0.116046 -0.198433,0.145728 -0.03965,0.02968 -0.135085,0.09797 -0.212072,0.151755 -0.196498,0.137321 -0.252431,0.215919 -0.251201,0.353004 9.26e-4,0.102981 0.02904,0.173068 0.09665,0.24092 0.08182,0.08212 0.246754,0.108082 0.348713,0.05491 z m -1.142687,-0.625696 c 0.09875,-0.04369 0.140844,-0.101484 0.152315,-0.209111 0.01002,-0.09426 -0.02598,-0.174427 -0.100203,-0.223058 -0.05018,-0.03286 -0.250918,-0.03548 -3.4435436,-0.04485 l -3.390257,-0.01002 0.0015,-0.661791 0.0015,-0.66179 0.282212,-0.370091 c 0.294456,-0.386148 0.438042,-0.57326 0.619013,-0.806656 0.05923,-0.07639 0.165844,-0.214808 0.23692,-0.307582 0.07107,-0.09275 0.136429,-0.177598 0.145249,-0.188513 0.01656,-0.02041 0.07871,-0.101226 0.588165,-0.763991 0.16359,-0.212825 0.379042,-0.489648 0.478773,-0.61516 0.09973,-0.125515 0.238793,-0.303883 0.309026,-0.396378 0.07023,-0.0925 0.142555,-0.186261 0.160736,-0.208363 0.05243,-0.06379 0.638219,-0.820623 0.926945,-1.197614 0.14483,-0.189115 0.279665,-0.363235 0.299631,-0.386956 0.07055,-0.08383 0.8642246,-1.1091856 1.1620796,-1.5013236 0.08691,-0.1144138 0.227873,-0.29748 0.313255,-0.4067998 0.59054,-0.7560873 0.608749,-0.7825542 0.608749,-0.8846812 0,-0.02325 -0.01457,-0.073043 -0.03244,-0.1106463 -0.06613,-0.1393483 0.15022,-0.1295642 -2.9418146,-0.1329879 l -2.79039,-0.003 -0.0052,-0.6498862 -0.0052,-0.6498889 h 3.919425 3.9194366 l -8.4e-4,0.6300431 -8.41e-4,0.6300431 -0.311701,0.3986417 c -0.424745,0.5432151 -0.936437,1.2011591 -1.055784,1.3575421 -0.05415,0.070952 -0.208463,0.2718597 -0.342943,0.4464855 -0.291334,0.3783054 -0.942708,1.2285964 -0.997526,1.3021494 -0.05321,0.0714 -0.290257,0.377764 -0.320595,0.414345 -0.04145,0.04997 -0.7244956,0.933582 -0.9150556,1.183733 -0.09851,0.129298 -0.249268,0.324402 -0.335032,0.433544 -0.08576,0.109142 -0.240507,0.310022 -0.343878,0.4464 -0.103379,0.136388 -0.198575,0.261396 -0.211571,0.277816 -0.208779,0.263795 -0.290716,0.368342 -0.373327,0.476338 -0.05426,0.07095 -0.109604,0.142375 -0.122977,0.158759 -0.01337,0.01636 -0.120622,0.155748 -0.238366,0.30971 -0.117728,0.15397 -0.286542,0.37275 -0.375132,0.486175 -0.08859,0.113411 -0.180095,0.237486 -0.203325,0.275685 -0.07975,0.131101 -0.04291,0.293323 0.08358,0.368045 0.05806,0.03428 0.174227,0.03614 2.344714,0.03741 2.1496516,0.0012 2.2867756,-7.14e-4 2.3370696,-0.03366 0.160198,-0.104956 0.160198,-0.32111 1.7e-5,-0.426092 -0.04985,-0.03268 -0.184883,-0.03568 -2.0320754,-0.04493 -1.0882662,-0.0055 -1.9843852,-0.01556 -1.9913762,-0.02264 -0.01238,-0.01232 0.145868,-0.224789 0.599263,-0.804614 0.121081,-0.154849 0.2494,-0.324516 0.28514,-0.377033 0.03575,-0.05253 0.07045,-0.09994 0.07714,-0.105421 0.0068,-0.0055 0.05637,-0.06641 0.110443,-0.135443 0.05407,-0.06905 0.129543,-0.164908 0.167741,-0.213045 0.0382,-0.04813 0.176603,-0.228194 0.30758,-0.400133 0.130979,-0.171932 0.2491502,-0.326106 0.2626242,-0.342584 0.02792,-0.03415 0.4261674,-0.554445 0.5013654,-0.655012 0.02728,-0.03649 0.134554,-0.174206 0.238393,-0.306045 0.103846,-0.131833 0.255093,-0.328992 0.33614,-0.438135 0.08106,-0.109143 0.232736,-0.306291 0.337081,-0.438109 0.104333,-0.131818 0.328133,-0.420365 0.4973,-0.641211 0.169177,-0.220847 0.392716,-0.5103657 0.49677,-0.6433787 0.448043,-0.5727205 0.621552,-0.797159 0.861995,-1.1149689 0.140385,-0.1855416 0.363655,-0.4757545 0.496188,-0.644924 0.132533,-0.1691781 0.260524,-0.3357478 0.284427,-0.3701764 0.0431,-0.062085 0.04345,-0.069649 0.04345,-0.9349449 0,-0.8545989 -8.43e-4,-0.8734248 -0.04143,-0.9250335 -0.09422,-0.1197712 0.23369,-0.1114198 -4.3765706,-0.1114198 h -4.22139 l -0.064941,0.044508 c -0.119204,0.081666 -0.116112,0.051957 -0.116112,1.1179165 0,0.9613245 7.01e-4,0.9787565 0.04155,1.033839 0.02285,0.030814 0.07197,0.066683 0.109147,0.079704 0.05099,0.017963 0.712115,0.023966 2.691948,0.024811 1.443394,6.16e-4 2.6243536,0.00802 2.6243536,0.01656 0,0.023593 -0.14998,0.2245586 -0.5963694,0.7990925 -0.224338,0.2887195 -0.5407892,0.6990714 -0.7032432,0.9118965 -0.162453,0.212826 -0.345039,0.4509097 -0.405747,0.5290787 -0.06071,0.07817 -0.174886,0.225507 -0.253708,0.327423 -0.07883,0.101928 -0.413877,0.533562 -0.744545,0.959214 -0.757724,0.975378 -0.829933,1.068795 -1.436171,1.857891 -0.154071,0.200542 -0.413035,0.535681 -0.575473,0.744754 -0.162432,0.209069 -0.357853,0.462172 -0.434252,0.562445 -0.0764,0.100295 -0.237567,0.308731 -0.358151,0.463237 -0.120582,0.154508 -0.247833,0.322708 -0.282775,0.373789 l -0.06352,0.09288 v 0.892092 c 0,0.95462 5.95e-4,0.960753 0.100045,1.030408 0.02445,0.01716 0.07221,0.03728 0.106133,0.04478 0.03395,0.0076 1.624248,0.01457 3.534018,0.01557 3.3383006,0.0019 3.4755176,5.78e-4 3.5553406,-0.03473 z"
       id="path299"
       sodipodi:nodetypes="cccccssscccsssccssscscscccscscssccccsccccssscssscssssscccccccccsssccssscsscsccsssscsscsssssssssssssscsccsscssssssssscsscsccccc" /></g></svg>
