<?xml version="1.0" encoding="UTF-8" standalone="no"?>
<!DOCTYPE svg PUBLIC "-//W3C//DTD SVG 1.1//EN" "http://www.w3.org/Graphics/SVG/1.1/DTD/svg11.dtd">
<svg width="100%" height="100%" viewBox="0 0 512 512" version="1.1" xmlns="http://www.w3.org/2000/svg" xmlns:xlink="http://www.w3.org/1999/xlink" xml:space="preserve" xmlns:serif="http://www.serif.com/" style="fill-rule:evenodd;clip-rule:evenodd;stroke-linecap:round;stroke-linejoin:round;stroke-miterlimit:1.5;">
    <g id="linux-toys-toolbox" transform="matrix(0.869041,0,0,0.869041,-178.52,-125.41)">
        <g id="pinguim">
            <g transform="matrix(-1,0,0,1,5779.52,0.0432762)">
                <path d="M5257.51,209.818C5257.33,209.856 5257.15,209.893 5256.96,209.931C5201.17,221.53 5161.92,264.9 5157.58,349.39C5158.44,387.426 5130.44,405.795 5119.65,420.419C5090.56,453.615 5073.15,487.716 5067.8,524.423C5065.61,597.658 5134.12,613.24 5134.12,613.24L5424.91,613.24C5424.91,613.24 5493.43,597.658 5491.24,524.423C5485.88,487.716 5468.47,453.615 5439.39,420.419C5428.6,405.795 5400.6,387.426 5401.45,349.39C5397.47,271.796 5364.04,228.884 5315.4,213.412C5315.36,211.455 5320.88,207.812 5321.07,207.782C5321.22,207.623 5321.17,207.547 5320.98,207.536C5320.98,207.536 5312.58,207.182 5308.38,208.362C5303.5,209.734 5302.45,209.801 5302.45,209.801C5302.45,209.801 5307.11,196.453 5299.36,188.302C5299.14,188.062 5297.59,186.601 5296.37,188.432C5295.35,189.981 5292.83,191.619 5288.52,189.596C5288.52,189.596 5283.21,186.225 5276.25,184.542C5270.36,183.119 5257.35,184.999 5257.35,184.999C5257.35,184.999 5256.05,185.144 5256.75,186.118C5258.46,188.517 5271.55,199.339 5271.55,199.339C5271.96,199.726 5271.84,200.584 5270.46,200.516C5270.46,200.516 5258.11,200.007 5253.75,200.788C5248.97,201.645 5243.22,204.792 5243.22,204.792C5242.88,204.997 5242.98,205.506 5243.76,205.524C5244.79,205.501 5252.53,207.741 5256.6,209.423C5256.78,209.496 5257.11,209.64 5257.11,209.64C5257.11,209.64 5257.38,209.76 5257.51,209.818ZM5412.75,510.045C5412.75,510.045 5415.68,514.829 5417.53,520.343C5425.48,544.032 5407.79,556.919 5407.79,556.919L5412.75,510.045ZM5146.29,510.045L5151.25,556.919C5151.25,556.919 5133.56,544.032 5141.51,520.343C5143.36,514.829 5146.29,510.045 5146.29,510.045Z"/>
            </g>
            <g transform="matrix(0.461624,0,0,0.963143,-1985.78,21.2732)">
                <path d="M5593.27,577.188L5176.45,577.188C5156.95,520.792 5124.82,449.056 5172.18,369.924C5173.11,368.405 5175.98,367.349 5179.28,367.315C5182.59,367.28 5185.55,368.275 5186.62,369.773C5213,407.446 5328.99,419.362 5384.86,418.207C5440.73,419.362 5556.73,407.446 5583.1,369.773C5584.17,368.275 5587.14,367.28 5590.44,367.315C5593.74,367.349 5596.62,368.405 5597.55,369.924C5644.9,449.056 5612.78,520.791 5593.27,577.188Z" style="fill:white;"/>
            </g>
        </g>
        <g id="caixa-de-ferramentas" serif:id="caixa de ferramentas">
            <path d="M375.584,561.382L374.089,559.571C373.664,559.055 373.289,558.499 372.97,557.911L371.73,555.628C371.404,555.028 371.139,554.399 370.936,553.748L370.15,551.217C369.943,550.552 369.804,549.867 369.734,549.175L369.598,547.829C369.529,547.452 369.48,547.067 369.452,546.675L363.452,461.846C363.443,461.723 363.437,461.601 363.432,461.478L363.414,460.964C363.398,460.491 363.413,460.018 363.461,459.548L363.734,456.848C363.804,456.155 363.943,455.471 364.15,454.805L364.936,452.274C365.139,451.623 365.404,450.994 365.73,450.394L366.97,448.111C367.289,447.523 367.664,446.967 368.089,446.451L369.725,444.47C370.147,443.958 370.618,443.487 371.13,443.065L373.112,441.429C373.628,441.004 374.183,440.629 374.771,440.309L377.055,439.07C377.654,438.744 378.283,438.478 378.934,438.276L381.466,437.49C382.131,437.283 382.815,437.144 383.508,437.074L386.208,436.8C386.556,436.765 386.906,436.748 387.256,436.748L612.581,436.748C612.931,436.748 613.281,436.765 613.63,436.8L616.33,437.074C617.023,437.144 617.707,437.283 618.372,437.49L620.903,438.276C621.554,438.478 622.184,438.744 622.783,439.07L625.067,440.309C625.654,440.629 626.21,441.004 626.726,441.429L628.708,443.065C629.22,443.487 629.69,443.958 630.113,444.47L631.748,446.451C632.174,446.967 632.549,447.523 632.868,448.111L634.108,450.394C634.433,450.994 634.699,451.623 634.901,452.274L635.688,454.805C635.894,455.471 636.034,456.155 636.104,456.848L636.377,459.548C636.424,460.018 636.44,460.491 636.423,460.964L636.405,461.478C636.401,461.601 636.394,461.723 636.386,461.846L630.386,546.675C630.358,547.067 630.309,547.452 630.24,547.829L630.104,549.175C630.034,549.867 629.894,550.552 629.688,551.217L628.901,553.748C628.699,554.399 628.433,555.028 628.108,555.628L626.868,557.911C626.549,558.499 626.174,559.055 625.748,559.571L624.253,561.382L630.69,561.382L633.583,561.675L636.301,562.519L638.75,563.849L640.873,565.601L642.625,567.724L643.955,570.173L644.799,572.891L645.092,575.784L645.09,575.985C645.09,575.985 643.098,679.117 643.092,679.317L642.799,682.211L641.955,684.928L640.625,687.378L638.873,689.501L636.75,691.252L634.301,692.582L631.583,693.427L628.69,693.72L371.148,693.72L368.254,693.427L365.537,692.582L363.087,691.252L360.964,689.501L359.213,687.378L357.883,684.928L357.038,682.211C357.038,682.211 356.745,679.317 356.747,679.518L354.747,575.985L354.745,575.784L355.038,572.891L355.883,570.173L357.213,567.724L358.964,565.601L361.087,563.849L363.537,562.519L366.254,561.675L369.148,561.382L375.584,561.382Z"/>
            <g id="base-caixa" serif:id="base caixa" transform="matrix(0.96075,0,0,0.92867,-4573.77,45.7062)">
                <path d="M5421.23,570.793L5419.15,682.278C5419.15,684.647 5417.29,686.57 5415,686.57L5146.94,686.57C5144.65,686.57 5142.79,684.647 5142.79,682.278L5140.71,570.793C5140.71,568.424 5142.57,566.501 5144.85,566.501L5417.08,566.501C5419.37,566.501 5421.23,568.424 5421.23,570.793Z" style="fill:rgb(251,14,14);"/>
            </g>
            <g id="botão-terminal-caixa" serif:id="botão terminal caixa" transform="matrix(1.82722,0,0,1.82722,-413.541,-517.571)">
                <g transform="matrix(0.91318,0,0,0.91318,-4321.73,53.71)">
                    <path d="M5299.8,613.521L5299.8,639.173C5299.8,642.985 5296.71,646.081 5292.89,646.081L5267.24,646.081C5263.43,646.081 5260.33,642.985 5260.33,639.173L5260.33,613.521C5260.33,609.708 5263.43,606.613 5267.24,606.613L5292.89,606.613C5296.71,606.613 5299.8,609.708 5299.8,613.521Z" style="fill:white;"/>
                </g>
                <g transform="matrix(0.700562,0,0,0.700562,-3199.09,186.883)">
                    <path d="M5299.8,613.521L5299.8,639.173C5299.8,642.985 5296.71,646.081 5292.89,646.081L5267.24,646.081C5263.43,646.081 5260.33,642.985 5260.33,639.173L5260.33,613.521C5260.33,609.708 5263.43,606.613 5267.24,606.613L5292.89,606.613C5296.71,606.613 5299.8,609.708 5299.8,613.521Z"/>
                </g>
                <g transform="matrix(0.236072,0.136296,-0.0343442,0.0594859,-542.545,-26.7325)">
                    <path d="M4497.1,616.143L4469.28,616.143L4468.09,615.664L4466.97,614.287L4465.96,612.114L4465.09,609.248L4464.36,605.775L4463.82,601.774L4463.47,597.339L4463.35,592.608L4463.35,584.947L4463.47,580.215L4463.82,575.781L4464.36,571.78L4465.09,568.307L4465.96,565.441L4466.97,563.268L4468.09,561.89L4469.28,561.412L4509.03,561.412L4510.06,561.768L4511.04,562.799L4511.94,564.442L4512.75,566.628L4513.46,569.298L4514.05,572.4L4514.5,575.883L4514.53,576.21L4514.59,576.464L4515.12,579.774L4515.5,583.347L4515.73,587.109L4515.8,590.991L4515.71,594.917L4515.45,598.795L4515.01,602.511L4495.13,739.129L4494.43,742.987L4493.57,746.138L4492.6,748.517L4491.53,750.092L4490.41,750.838L4489.27,750.718L4488.12,749.695L4487.03,747.743L4485.36,743.913L4484.39,741.132L4483.6,737.722L4482.99,733.84L4482.6,729.621L4482.41,725.181L4482.44,720.629L4482.7,716.1L4483.19,711.763L4497.1,616.143ZM4509.69,590.902C4509.7,591.045 4509.72,591.178 4509.75,591.281L4509.69,590.902ZM4508.91,585.482L4508.85,585.103C4508.86,585.25 4508.88,585.382 4508.91,585.482ZM4469.46,591.879L4502.4,591.879L4505.04,610.077L4488.58,723.264L4489.93,726.365L4509.67,590.708L4508.93,585.676L4469.46,585.676L4469.46,591.879Z" style="fill:white;"/>
                </g>
                <g transform="matrix(0.236072,0.136296,-0.0343442,0.0594859,-542.545,-26.7325)">
                    <path d="M4502.4,604.011L4469.28,604.011C4467.69,604.011 4466.41,598.901 4466.41,592.608L4466.41,584.947C4466.41,578.653 4467.69,573.544 4469.28,573.544L4509.03,573.544C4510.4,573.544 4511.54,577.328 4511.83,582.394C4512.79,585.932 4513.04,591.755 4512.36,596.445L4492.49,733.063C4491.69,738.513 4489.94,740.383 4488.56,737.237L4486.89,733.406C4485.52,730.259 4485.05,723.28 4485.84,717.829L4502.4,604.011Z" style="fill:white;"/>
                </g>
                <g transform="matrix(0.236072,0.136296,-0.0343442,0.0594859,-547.392,-26.3976)">
                    <path d="M4571.02,590.177L4571.54,594.793L4571.82,599.615L4571.85,604.46L4571.65,609.186L4571.23,613.676L4570.59,617.808L4569.74,621.439L4568.71,624.398L4534.28,703.274L4533.12,705.351L4531.9,706.441L4530.68,706.568L4529.49,705.775L4528.36,704.099L4527.32,701.566L4526.4,698.211L4525.66,694.105L4524.69,687.47L4524.17,682.854L4523.9,678.032L4523.86,673.187L4524.06,668.461L4524.49,663.971L4525.12,659.839L4525.97,656.208L4527.01,653.249L4561.43,574.373L4562.59,572.296L4563.81,571.206L4565.03,571.079L4566.22,571.872L4567.35,573.549L4568.39,576.081L4569.31,579.436L4570.05,583.542L4571.02,590.177ZM4530.93,675.766L4531.33,678.511L4564.78,601.881L4564.38,599.136L4530.93,675.766Z" style="fill:white;"/>
                </g>
                <g transform="matrix(0.236072,0.136296,-0.0343442,0.0594859,-547.392,-26.3976)">
                    <path d="M4568.04,597.002C4568.83,602.452 4568.36,609.431 4566.99,612.578L4532.56,691.454C4531.19,694.601 4529.43,692.731 4528.64,687.281L4527.67,680.646C4526.88,675.196 4527.35,668.216 4528.72,665.069L4563.15,586.193C4564.52,583.046 4566.28,584.917 4567.07,590.367L4568.04,597.002Z" style="fill:white;"/>
                </g>
            </g>
            <g id="tampa">
                <g transform="matrix(1.11219,0,0,1.04636,-5363.73,-25.2656)">
                    <path d="M5368.08,558.245L5176.27,558.245L5173.85,557.983L5171.57,557.232L5169.52,556.047L5167.73,554.484L5166.27,552.59L5165.15,550.407L5164.44,547.988L5164.2,545.408L5164.21,545.899L5158.82,464.828L5158.8,464.336L5159.05,461.756L5159.76,459.337L5160.87,457.154L5162.34,455.26L5164.12,453.697L5166.18,452.512L5168.45,451.76L5170.88,451.499L5373.48,451.499L5375.9,451.76L5378.18,452.512L5380.23,453.697L5382.01,455.26L5383.48,457.154L5384.6,459.337L5385.31,461.756L5385.55,464.336L5385.54,464.828L5380.14,545.899L5380.16,545.408L5379.91,547.988L5379.2,550.407L5378.09,552.59L5376.62,554.484L5374.84,556.047L5372.78,557.232L5370.51,557.983L5368.08,558.245ZM5172,465.437L5177.25,544.307L5367.1,544.308L5372.35,465.437L5172,465.437ZM5367.05,545.329C5367.05,545.355 5367.05,545.381 5367.05,545.408L5367.05,545.329ZM5177.31,545.329L5177.31,545.408C5177.31,545.381 5177.31,545.355 5177.31,545.329Z" style="fill:rgb(251,14,14);"/>
                </g>
                <g id="tampa-" serif:id="tampa " transform="matrix(1.11219,0,0,1.04636,-5363.73,-25.2656)">
                    <path d="M5368.08,551.276L5176.27,551.276C5173.23,551.276 5170.75,548.646 5170.75,545.408L5165.36,464.336C5165.36,461.098 5167.83,458.468 5170.88,458.468L5373.48,458.468C5376.52,458.468 5379,461.098 5379,464.336L5373.6,545.408C5373.6,548.646 5371.13,551.276 5368.08,551.276Z"/>
                </g>
            </g>
            <g id="martelo">
                <g transform="matrix(1,0,0,1,-4779.52,0)">
                    <path d="M5218.8,528.38L5232.51,521.522L5255.33,560.542L5234.79,560.542L5218.8,528.38Z" style="fill:none;stroke:black;stroke-width:14.38px;"/>
                    <path d="M5218.8,528.38L5232.51,521.522L5255.33,560.542L5234.79,560.542L5218.8,528.38Z" style="fill:rgb(252,170,32);"/>
                </g>
                <g transform="matrix(1,0,0,1,-4779.52,0)">
                    <path d="M5184.68,499.228C5185.68,496.466 5191.3,485.745 5200.9,480.213C5210.49,474.682 5220.79,469.269 5232.77,470.754C5244.75,472.24 5257.93,477.58 5262.48,481.426C5267.03,485.272 5268.08,485.96 5268.28,487.27C5268.52,488.82 5267.44,490.89 5263.42,490.191C5234.13,485.096 5230.87,491.642 5231.41,506.428C5231.58,510.83 5230.9,511.724 5230.62,512.068C5229.93,512.936 5219.9,519.326 5213.87,521.571C5213.87,521.571 5210.11,522.618 5206.29,519.965C5195.7,514.455 5188.47,518.075 5186.17,523.809C5184.29,529.607 5179.34,532.757 5171.95,533.807C5167.11,533.838 5158.89,516.477 5158.89,516.477C5157.52,513.668 5158.06,512.133 5160.97,510.572C5160.97,510.572 5166.73,506.128 5172.02,505.009C5172.32,505.483 5183.53,502.368 5184.68,499.228Z" style="fill:none;stroke:black;stroke-width:14.38px;"/>
                    <path d="M5184.68,499.228C5185.68,496.466 5191.3,485.745 5200.9,480.213C5210.49,474.682 5220.79,469.269 5232.77,470.754C5244.75,472.24 5257.93,477.58 5262.48,481.426C5267.03,485.272 5268.08,485.96 5268.28,487.27C5268.52,488.82 5267.44,490.89 5263.42,490.191C5234.13,485.096 5230.87,491.642 5231.41,506.428C5231.58,510.83 5230.9,511.724 5230.62,512.068C5229.93,512.936 5219.9,519.326 5213.87,521.571C5213.87,521.571 5210.11,522.618 5206.29,519.965C5195.7,514.455 5188.47,518.075 5186.17,523.809C5184.29,529.607 5179.34,532.757 5171.95,533.807C5167.11,533.838 5158.89,516.477 5158.89,516.477C5157.52,513.668 5158.06,512.133 5160.97,510.572C5160.97,510.572 5166.73,506.128 5172.02,505.009C5172.32,505.483 5183.53,502.368 5184.68,499.228Z" style="fill:rgb(221,221,221);"/>
                </g>
            </g>
            <g id="chave-de-boca" serif:id="chave de boca">
                <g transform="matrix(1,0,0,1,-4779.52,0)">
                    <path d="M5334.41,498.085C5334.48,498.258 5334.71,498.798 5334.91,499.093C5335.54,500.004 5336.46,500.832 5337.52,501.555C5341.14,504.037 5346.8,505.858 5349.64,501.692L5358.17,479.756L5362.06,476.077L5364.75,475.651L5367.25,476.016L5369.63,477.079C5370.49,477.599 5371.35,478.287 5372.18,479.135C5375.83,482.866 5378.97,490.625 5379.5,494.391C5380.85,504.044 5380.9,513.983 5368.1,528.744L5367.09,529.679C5360.85,534.284 5354.22,537.595 5347.35,540.112C5340.6,545.878 5337.14,554.943 5333.32,563.743L5327.59,567.507L5299.93,567.507L5294.08,559.036L5305.48,529.068L5305.6,528.759C5306.64,526.408 5306.94,523.778 5306.51,520.844C5304.45,514.495 5302.85,505.041 5302.64,500.277C5302.04,486.89 5310.28,475.146 5319.81,469.125C5327.03,464.568 5334.92,463.441 5340.65,465.892L5344,473.946L5334.42,498.081L5334.41,498.085ZM5334.35,498.232L5334.35,498.237C5334.35,498.236 5334.35,498.234 5334.35,498.232ZM5366.31,493.322L5361.08,506.777L5360.63,507.702C5353.85,519.127 5339.62,518.154 5330.45,511.864C5323.42,507.047 5320.27,499.493 5322.82,493.407L5328.79,478.383C5328.02,478.766 5327.25,479.21 5326.49,479.693C5320.32,483.591 5314.74,491.056 5315.12,499.723C5315.31,503.82 5316.74,512.06 5318.53,517.368L5318.77,518.325C5319.73,524.031 5319.08,529.116 5317.11,533.654L5308.99,555.007L5323.5,555.007C5327.82,545.243 5332.55,535.848 5340.34,529.692L5342.14,528.701C5348.04,526.617 5353.75,523.889 5359.11,520.026C5367.81,509.776 5368.07,502.904 5367.12,496.124C5367.01,495.392 5366.72,494.399 5366.31,493.322Z"/>
                </g>
                <g id="chave-de-boca1" serif:id="chave de boca" transform="matrix(1,0,0,1,-4779.52,0)">
                    <path d="M5299.93,561.257L5327.59,561.257C5331.97,551.163 5336.21,540.928 5344.22,534.595C5350.9,532.236 5357.34,529.108 5363.38,524.651C5374.35,511.997 5374.46,503.532 5373.31,495.258C5372.73,491.119 5368.12,480.676 5363.99,482.019L5355.25,504.514C5347.32,517.878 5324.63,505.058 5328.61,495.774L5338.2,471.639C5327.8,467.195 5308.06,481.622 5308.88,500C5309.08,504.496 5310.64,513.54 5312.61,519.365C5313.35,523.806 5312.88,527.763 5311.32,531.289L5299.93,561.257Z" style="fill:rgb(221,221,221);"/>
                </g>
            </g>
        </g>
        <g id="rosto" transform="matrix(0.545775,0,0,0.545775,-3227.95,240.671)">
            <g transform="matrix(1,0,0,-1,6447.28,969.057)">
                <path d="M278.625,780.477C256.125,783.926 239.707,803.191 235.438,831.16C234.008,840.52 234.918,859.789 237.203,868.5C247.004,905.883 274.707,930 307.852,930C321.836,930 332.672,926.164 343.871,917.254C366.812,898.996 377.141,866.652 369.492,837C366.148,824.043 365.98,823.781 355.875,816.145C350.926,812.402 343.094,806.355 338.473,802.711C324.547,791.719 312.234,785.219 299.637,782.207C293.531,780.75 282.68,779.855 278.625,780.477ZM470.5,781.109C454.332,784.043 440.477,791.34 422.625,806.316C418.086,810.121 411.277,815.543 407.492,818.363C399.801,824.094 399.062,825.367 395.801,838.492C393.523,847.656 393.559,865.328 395.875,874.754C401.574,897.965 415.285,915.77 434.32,924.691C442.844,928.688 448.691,929.977 458.25,929.977C476.414,929.973 492.086,923.223 505.961,909.426C524.02,891.477 533.789,863.223 531.105,836.73C529.113,817.09 523.785,804.383 512.941,793.414C501.641,781.984 487.797,777.973 470.5,781.109Z" style="fill:white;fill-rule:nonzero;"/>
            </g>
            <g transform="matrix(1,0,0,-1,6447.28,897.534)">
                <path d="M370.531,620.856C356.367,622.875 336.309,633.004 318.75,646.997C305.59,657.481 289.129,676.344 287.512,682.789C286.961,684.985 288.477,690.461 289.73,690.797C290.223,690.93 292.82,691.442 295.5,691.934C313.297,695.2 331.918,704.875 354.719,722.7C371.867,736.106 378.992,739.5 386.453,737.832C393.582,736.235 398.055,733.415 415.234,719.668C435.309,703.606 446.418,697.704 466.562,692.395C472.867,690.731 476.996,689.25 477.621,688.422C478.254,687.582 478.5,685.805 478.297,683.547C477.852,678.688 474.363,673.645 464.027,662.946C445.758,644.024 429.113,632.61 408.645,624.965C396.398,620.391 383.508,619 370.531,620.856ZM401.504,639.766C418.258,644.098 435.672,654.907 446.664,667.786C454.496,676.969 454.195,679.868 445.688,677.161C418.828,668.614 378.457,665.481 351.375,669.84C342.785,671.223 324.574,675.75 319.328,677.805C315.574,679.274 313.902,679.106 313.164,677.188C312.531,675.539 314.277,673.157 321.852,665.329C344.406,642.012 373.766,632.59 401.504,639.766Z" style="fill:rgb(252,170,32);fill-rule:nonzero;"/>
            </g>
            <g transform="matrix(1,0,0,-1,6447.28,969.776)">
                <path d="M369,710.883C361.945,712.446 353.625,715.223 349.219,717.481L346.348,718.953L351.684,721.758C360.422,726.348 369.691,728.391 382.125,728.457C390.59,728.504 393.914,728.196 399.281,726.86C405.512,725.309 418.5,719.891 418.5,718.844C418.5,717.875 408.133,713.723 401.258,711.946C391.328,709.375 377.824,708.93 369,710.883Z" style="fill:rgb(227,75,48);fill-rule:nonzero;"/>
            </g>
            <g transform="matrix(1,0,0,-1,6447.28,867.502)">
                <path d="M302.625,720.668C293.145,725.187 287.434,738.269 289.34,751.109C290.77,760.726 295.652,768.511 302.941,772.8C305.852,774.507 307.246,774.82 312.004,774.82C316.773,774.82 318.16,774.511 321.09,772.785C325.504,770.191 328.961,766.246 331.43,760.98C333.191,757.222 333.301,738.629 330.832,733.609C326.215,724.23 319.941,719.593 311.254,719.136C307.312,718.929 305.664,719.222 302.625,720.668ZM447.98,720.406C443.98,722.222 438.594,727.172 436.23,731.207C431.305,739.609 430.559,752.707 434.512,761.32C440.684,774.757 454.605,779.246 465.164,771.195C474.195,764.304 478.879,752.082 476.996,740.308C475.523,731.09 469.883,722.843 463.105,720.011C459.43,718.476 451.789,718.675 447.98,720.406Z" style="fill-rule:nonzero;"/>
            </g>
            <g transform="matrix(1,0,0,1,-3.217,-6.81587)">
                <ellipse cx="6767.16" cy="122.122" rx="8.569" ry="11.358" style="fill:white;"/>
            </g>
            <g transform="matrix(1,0,0,1,139.588,-6.81587)">
                <ellipse cx="6767.16" cy="122.122" rx="8.569" ry="11.358" style="fill:white;"/>
            </g>
        </g>
    </g>
</svg>
