<?xml version="1.0" encoding="UTF-8" standalone="no"?>
<!DOCTYPE svg PUBLIC "-//W3C//DTD SVG 1.1//EN" "http://www.w3.org/Graphics/SVG/1.1/DTD/svg11.dtd">
<svg width="100%" height="100%" viewBox="0 0 512 512" version="1.1" xmlns="http://www.w3.org/2000/svg" xmlns:xlink="http://www.w3.org/1999/xlink" xml:space="preserve" xmlns:serif="http://www.serif.com/" style="fill-rule:evenodd;clip-rule:evenodd;stroke-linejoin:round;stroke-miterlimit:2;">
    <g id="linux-toys-rubiks-cube" transform="matrix(0.720144,0,0,0.720144,-1016.75,-2079.3)">
        <g transform="matrix(4.63745,-2.31873,-2.87816e-16,5.67091,-887.279,1306.68)">
            <path d="M509.823,524.707C509.823,522.578 511.295,521.233 513.623,521.233L569.596,521.233C571.382,521.233 573.485,522.093 575.271,523.554C585.356,531.801 619.486,559.711 631.12,569.225C633.525,571.191 635.043,573.822 635.043,576.02L635.043,626.244C635.043,628.348 633.59,629.677 631.289,629.677L575.91,629.677C573.721,629.677 571.145,628.623 568.957,626.834C557.908,617.798 523.697,589.822 513.032,581.101C511.066,579.493 509.823,577.341 509.823,575.543L509.823,524.707Z"/>
        </g>
        <g transform="matrix(4.78197,-2.39099,-2.96785e-16,5.84763,-970.005,1246.35)">
            <path d="M509.823,524.603C509.823,522.538 511.25,521.233 513.508,521.233L569.682,521.233C571.414,521.233 573.453,522.067 575.185,523.484C585.195,531.669 619.687,559.875 631.239,569.322C633.57,571.229 635.043,573.78 635.043,575.912L635.043,626.348C635.043,628.388 633.634,629.677 631.402,629.677L575.805,629.677C573.683,629.677 571.184,628.655 569.062,626.92C558.093,617.95 523.522,589.679 512.935,581.021C511.028,579.462 509.824,577.375 509.823,575.632L509.823,524.603Z"/>
        </g>
        <g id="topo" transform="matrix(1.10036,0,0,1.10036,1217.38,2711.38)">
            <g transform="matrix(1.18512,-0.592558,1.4814,0.740698,-352.647,-128.631)">
                <path d="M-83.87,521.233C-80.873,521.233 -79.108,522.645 -79.108,525.043L-79.108,564.814C-79.108,566.257 -80.382,568.188 -82.399,569.801C-84.416,571.414 -86.829,572.433 -88.633,572.433L-138.346,572.433C-141.344,572.433 -143.108,571.022 -143.108,568.624L-143.108,528.853C-143.108,527.41 -141.834,525.479 -139.818,523.866C-137.801,522.253 -135.388,521.233 -133.584,521.233L-83.87,521.233Z" style="fill:rgb(255,231,14);"/>
            </g>
            <g transform="matrix(1.18512,-0.592558,1.4814,0.740698,-265.434,-85.0245)">
                <path d="M-83.87,521.233C-80.873,521.233 -79.108,522.645 -79.108,525.043L-79.108,564.814C-79.108,566.257 -80.382,568.188 -82.399,569.801C-84.416,571.414 -86.829,572.433 -88.633,572.433L-138.346,572.433C-141.344,572.433 -143.108,571.022 -143.108,568.624L-143.108,528.853C-143.108,527.41 -141.834,525.479 -139.818,523.866C-137.801,522.253 -135.388,521.233 -133.584,521.233L-83.87,521.233Z" style="fill:rgb(0,186,22);"/>
            </g>
            <g transform="matrix(1.18512,-0.592558,1.4814,0.740698,-178.579,-41.5971)">
                <path d="M-83.87,521.233C-80.873,521.233 -79.108,522.645 -79.108,525.043L-79.108,564.814C-79.108,566.257 -80.382,568.188 -82.399,569.801C-84.416,571.414 -86.829,572.433 -88.633,572.433L-138.346,572.433C-141.344,572.433 -143.108,571.022 -143.108,568.624L-143.108,528.853C-143.108,527.41 -141.834,525.479 -139.818,523.866C-137.801,522.253 -135.388,521.233 -133.584,521.233L-83.87,521.233Z" style="fill:rgb(0,186,22);"/>
            </g>
            <g transform="matrix(1.18512,-0.592558,1.4814,0.740698,-265.434,-172.238)">
                <path d="M-83.87,521.233C-80.873,521.233 -79.108,522.645 -79.108,525.043L-79.108,564.814C-79.108,566.257 -80.382,568.188 -82.399,569.801C-84.416,571.414 -86.829,572.433 -88.633,572.433L-138.346,572.433C-141.344,572.433 -143.108,571.022 -143.108,568.624L-143.108,528.853C-143.108,527.41 -141.834,525.479 -139.818,523.866C-137.801,522.253 -135.388,521.233 -133.584,521.233L-83.87,521.233Z" style="fill:rgb(255,4,4);"/>
            </g>
            <g transform="matrix(1.18512,-0.592558,1.4814,0.740698,-178.221,-128.631)">
                <path d="M-79.108,521.233L-79.108,564.814C-79.108,566.257 -80.382,568.188 -82.399,569.801C-84.416,571.414 -86.829,572.433 -88.633,572.433L-143.108,572.433L-143.108,528.853C-143.108,527.41 -141.834,525.479 -139.818,523.866C-137.801,522.253 -135.388,521.233 -133.584,521.233L-79.108,521.233Z" style="fill:white;"/>
            </g>
            <g transform="matrix(1.18512,-0.592558,1.4814,0.740698,-91.3661,-85.2036)">
                <path d="M-79.108,521.233L-79.108,564.814C-79.108,566.257 -80.382,568.188 -82.399,569.801C-84.416,571.414 -86.829,572.433 -88.633,572.433L-143.108,572.433L-143.108,528.853C-143.108,527.41 -141.834,525.479 -139.818,523.866C-137.801,522.253 -135.388,521.233 -133.584,521.233L-79.108,521.233Z" style="fill:rgb(0,186,22);"/>
            </g>
            <g transform="matrix(1.18512,-0.592558,1.4814,0.740698,-178.221,-215.844)">
                <path d="M-83.87,521.233C-80.873,521.233 -79.108,522.645 -79.108,525.043L-79.108,564.814C-79.108,566.257 -80.382,568.188 -82.399,569.801C-84.416,571.414 -86.829,572.433 -88.633,572.433L-138.346,572.433C-141.344,572.433 -143.108,571.022 -143.108,568.624L-143.108,528.853C-143.108,527.41 -141.834,525.479 -139.818,523.866C-137.801,522.253 -135.388,521.233 -133.584,521.233L-83.87,521.233Z" style="fill:rgb(24,80,233);"/>
            </g>
            <g transform="matrix(1.18512,-0.592558,1.4814,0.740698,-91.0078,-172.238)">
                <path d="M-83.87,521.233C-80.873,521.233 -79.108,522.645 -79.108,525.043L-79.108,564.814C-79.108,566.257 -80.382,568.188 -82.399,569.801C-84.416,571.414 -86.829,572.433 -88.633,572.433L-138.346,572.433C-141.344,572.433 -143.108,571.022 -143.108,568.624L-143.108,528.853C-143.108,527.41 -141.834,525.479 -139.818,523.866C-137.801,522.253 -135.388,521.233 -133.584,521.233L-83.87,521.233Z" style="fill:rgb(24,80,233);"/>
            </g>
            <g transform="matrix(1.18512,-0.592558,1.4814,0.740698,-4.15303,-128.81)">
                <path d="M-83.87,521.233C-80.873,521.233 -79.108,522.645 -79.108,525.043L-79.108,564.814C-79.108,566.257 -80.382,568.188 -82.399,569.801C-84.416,571.414 -86.829,572.433 -88.633,572.433L-138.346,572.433C-141.344,572.433 -143.108,571.022 -143.108,568.624L-143.108,528.853C-143.108,527.41 -141.834,525.479 -139.818,523.866C-137.801,522.253 -135.388,521.233 -133.584,521.233L-83.87,521.233Z" style="fill:rgb(255,4,4);"/>
            </g>
        </g>
        <g id="lateral--T-" serif:id="lateral (T)" transform="matrix(1.09256,0,0,1.09256,1196.32,2692.56)">
            <g transform="matrix(1.2112,-0.605601,-7.51713e-17,1.48112,-167.518,-6.08649)">
                <path d="M627.45,572.433C629.077,572.433 631.008,573.294 632.555,574.708C634.102,576.123 635.043,577.889 635.043,579.376L635.043,624.373C635.043,627.624 632.798,629.677 629.243,629.677L580.027,629.677C578.4,629.677 576.469,628.816 574.922,627.402C573.375,625.987 572.433,624.221 572.433,622.734L572.433,577.737C572.433,574.487 574.679,572.433 578.234,572.433L627.45,572.433Z" style="fill:white;"/>
            </g>
            <g transform="matrix(1.2112,-0.605601,-7.51713e-17,1.48112,-167.518,88.7003)">
                <path d="M627.45,572.433C629.077,572.433 631.008,573.294 632.555,574.708C634.102,576.123 635.043,577.889 635.043,579.376L635.043,624.373C635.043,627.624 632.798,629.677 629.243,629.677L580.027,629.677C578.4,629.677 576.469,628.816 574.922,627.402C573.375,625.987 572.433,624.221 572.433,622.734L572.433,577.737C572.433,574.487 574.679,572.433 578.234,572.433L627.45,572.433Z" style="fill:rgb(0,186,22);"/>
            </g>
            <g transform="matrix(1.2112,-0.605601,-7.51713e-17,1.48112,-167.518,183.487)">
                <path d="M627.45,572.433C629.077,572.433 631.008,573.294 632.555,574.708C634.102,576.123 635.043,577.889 635.043,579.376L635.043,624.373C635.043,627.624 632.798,629.677 629.243,629.677L580.027,629.677C578.4,629.677 576.469,628.816 574.922,627.402C573.375,625.987 572.433,624.221 572.433,622.734L572.433,577.737C572.433,574.487 574.679,572.433 578.234,572.433L627.45,572.433Z" style="fill:rgb(255,231,14);"/>
            </g>
            <g transform="matrix(1.2112,-0.605601,-7.51713e-17,1.48112,-80.083,-49.8039)">
                <path d="M627.45,572.433C629.077,572.433 631.008,573.294 632.555,574.708C634.102,576.123 635.043,577.889 635.043,579.376L635.043,624.373C635.043,627.624 632.798,629.677 629.243,629.677L580.027,629.677C578.4,629.677 576.469,628.816 574.922,627.402C573.375,625.987 572.433,624.221 572.433,622.734L572.433,577.737C572.433,574.487 574.679,572.433 578.234,572.433L627.45,572.433Z" style="fill:white;"/>
            </g>
            <g transform="matrix(1.2112,-0.605601,-7.51713e-17,1.48112,-80.083,44.9828)">
                <path d="M627.45,572.433C629.077,572.433 631.008,573.294 632.555,574.708C634.102,576.123 635.043,577.889 635.043,579.376L635.043,624.373C635.043,627.624 632.798,629.677 629.243,629.677L580.027,629.677C578.4,629.677 576.469,628.816 574.922,627.402C573.375,625.987 572.433,624.221 572.433,622.734L572.433,577.737C572.433,574.487 574.679,572.433 578.234,572.433L627.45,572.433Z" style="fill:white;"/>
            </g>
            <g transform="matrix(1.2112,-0.605601,-7.51713e-17,1.48112,-80.083,139.77)">
                <path d="M627.45,572.433C629.077,572.433 631.008,573.294 632.555,574.708C634.102,576.123 635.043,577.889 635.043,579.376L635.043,624.373C635.043,627.624 632.798,629.677 629.243,629.677L580.027,629.677C578.4,629.677 576.469,628.816 574.922,627.402C573.375,625.987 572.433,624.221 572.433,622.734L572.433,577.737C572.433,574.487 574.679,572.433 578.234,572.433L627.45,572.433Z" style="fill:white;"/>
            </g>
            <g transform="matrix(1.2112,-0.605601,-7.51713e-17,1.48112,7.35189,-93.5214)">
                <path d="M627.45,572.433C629.077,572.433 631.008,573.294 632.555,574.708C634.102,576.123 635.043,577.889 635.043,579.376L635.043,624.373C635.043,627.624 632.798,629.677 629.243,629.677L580.027,629.677C578.4,629.677 576.469,628.816 574.922,627.402C573.375,625.987 572.433,624.221 572.433,622.734L572.433,577.737C572.433,574.487 574.679,572.433 578.234,572.433L627.45,572.433Z" style="fill:white;"/>
            </g>
            <g transform="matrix(1.2112,-0.605601,-7.51713e-17,1.48112,7.35189,1.26539)">
                <path d="M627.45,572.433C629.077,572.433 631.008,573.294 632.555,574.708C634.102,576.123 635.043,577.889 635.043,579.376L635.043,624.373C635.043,627.624 632.798,629.677 629.243,629.677L580.027,629.677C578.4,629.677 576.469,628.816 574.922,627.402C573.375,625.987 572.433,624.221 572.433,622.734L572.433,577.737C572.433,574.487 574.679,572.433 578.234,572.433L627.45,572.433Z" style="fill:rgb(255,4,4);"/>
            </g>
            <g transform="matrix(1.2112,-0.605601,-7.51713e-17,1.48112,7.35189,96.0522)">
                <path d="M627.45,572.433C629.077,572.433 631.008,573.294 632.555,574.708C634.102,576.123 635.043,577.889 635.043,579.376L635.043,624.373C635.043,627.624 632.798,629.677 629.243,629.677L580.027,629.677C578.4,629.677 576.469,628.816 574.922,627.402C573.375,625.987 572.433,624.221 572.433,622.734L572.433,577.737C572.433,574.487 574.679,572.433 578.234,572.433L627.45,572.433Z" style="fill:rgb(255,159,4);"/>
            </g>
        </g>
        <g id="lateral--L-" serif:id="lateral (L)" transform="matrix(-1.09251,0,0,1.09251,2338.35,2692.25)">
            <g transform="matrix(1.2112,-0.605601,-7.51713e-17,1.48112,-167.518,-6.08649)">
                <path d="M627.45,572.433C629.076,572.433 631.008,573.294 632.555,574.709C634.102,576.123 635.043,577.889 635.043,579.376L635.043,624.373C635.043,627.624 632.798,629.677 629.242,629.677L580.027,629.677C578.4,629.677 576.469,628.816 574.922,627.402C573.375,625.987 572.433,624.221 572.433,622.734L572.433,577.737C572.433,574.487 574.679,572.433 578.234,572.433L627.45,572.433Z" style="fill:rgb(24,80,233);"/>
            </g>
            <g transform="matrix(1.2112,-0.605601,-7.51713e-17,1.48112,-167.518,88.7003)">
                <path d="M627.45,572.433C629.076,572.433 631.008,573.294 632.555,574.709C634.102,576.123 635.043,577.889 635.043,579.376L635.043,624.373C635.043,627.624 632.798,629.677 629.242,629.677L580.027,629.677C578.4,629.677 576.469,628.816 574.922,627.402C573.375,625.987 572.433,624.221 572.433,622.734L572.433,577.737C572.433,574.487 574.679,572.433 578.234,572.433L627.45,572.433Z" style="fill:rgb(255,4,4);"/>
            </g>
            <g transform="matrix(1.2112,-0.605601,-7.51713e-17,1.48112,-167.518,183.487)">
                <path d="M627.45,572.433C629.076,572.433 631.008,573.294 632.555,574.709C634.102,576.123 635.043,577.889 635.043,579.376L635.043,624.373C635.043,627.624 632.798,629.677 629.242,629.677L580.027,629.677C578.4,629.677 576.469,628.816 574.922,627.402C573.375,625.987 572.433,624.221 572.433,622.734L572.433,577.737C572.433,574.487 574.679,572.433 578.234,572.433L627.45,572.433Z" style="fill:rgb(0,186,22);"/>
            </g>
            <g transform="matrix(1.2112,-0.605601,-7.51713e-17,1.48112,-80.083,-49.8039)">
                <path d="M627.45,572.433C629.076,572.433 631.008,573.294 632.555,574.709C634.102,576.123 635.043,577.889 635.043,579.376L635.043,624.373C635.043,627.624 632.798,629.677 629.242,629.677L580.027,629.677C578.4,629.677 576.469,628.816 574.922,627.402C573.375,625.987 572.433,624.221 572.433,622.734L572.433,577.737C572.433,574.487 574.679,572.433 578.234,572.433L627.45,572.433Z" style="fill:rgb(255,231,14);"/>
            </g>
            <g transform="matrix(1.2112,-0.605601,-7.51713e-17,1.48112,-80.083,44.9828)">
                <path d="M627.45,572.433C629.076,572.433 631.008,573.294 632.555,574.709C634.102,576.123 635.043,577.889 635.043,579.376L635.043,624.373C635.043,627.624 632.798,629.677 629.242,629.677L580.027,629.677C578.4,629.677 576.469,628.816 574.922,627.402C573.375,625.987 572.433,624.221 572.433,622.734L572.433,577.737C572.433,574.487 574.679,572.433 578.234,572.433L627.45,572.433Z" style="fill:rgb(0,186,22);"/>
            </g>
            <g transform="matrix(1.2112,-0.605601,-7.51713e-17,1.48112,-80.083,139.77)">
                <path d="M627.45,572.433C629.076,572.433 631.008,573.294 632.555,574.709C634.102,576.123 635.043,577.889 635.043,579.376L635.043,624.373C635.043,627.624 632.798,629.677 629.242,629.677L580.027,629.677C578.4,629.677 576.469,628.816 574.922,627.402C573.375,625.987 572.433,624.221 572.433,622.734L572.433,577.737C572.433,574.487 574.679,572.433 578.234,572.433L627.45,572.433Z" style="fill:white;"/>
            </g>
            <g transform="matrix(1.2112,-0.605601,-7.51713e-17,1.48112,7.35189,-93.5214)">
                <path d="M627.45,572.433C629.076,572.433 631.008,573.294 632.555,574.709C634.102,576.123 635.043,577.889 635.043,579.376L635.043,624.373C635.043,627.624 632.798,629.677 629.242,629.677L580.027,629.677C578.4,629.677 576.469,628.816 574.922,627.402C573.375,625.987 572.433,624.221 572.433,622.734L572.433,577.737C572.433,574.487 574.679,572.433 578.234,572.433L627.45,572.433Z" style="fill:white;"/>
            </g>
            <g transform="matrix(1.2112,-0.605601,-7.51713e-17,1.48112,7.35189,1.26539)">
                <path d="M627.45,572.433C629.076,572.433 631.008,573.294 632.555,574.709C634.102,576.123 635.043,577.889 635.043,579.376L635.043,624.373C635.043,627.624 632.798,629.677 629.242,629.677L580.027,629.677C578.4,629.677 576.469,628.816 574.922,627.402C573.375,625.987 572.433,624.221 572.433,622.734L572.433,577.737C572.433,574.487 574.679,572.433 578.234,572.433L627.45,572.433Z" style="fill:white;"/>
            </g>
            <g transform="matrix(1.2112,-0.605601,-7.51713e-17,1.48112,7.35189,96.0522)">
                <path d="M627.45,572.433C629.076,572.433 631.008,573.294 632.555,574.709C634.102,576.123 635.043,577.889 635.043,579.376L635.043,624.373C635.043,627.624 632.798,629.677 629.242,629.677L580.027,629.677C578.4,629.677 576.469,628.816 574.922,627.402C573.375,625.987 572.433,624.221 572.433,622.734L572.433,577.737C572.433,574.487 574.679,572.433 578.234,572.433L627.45,572.433Z" style="fill:white;"/>
            </g>
        </g>
        <g transform="matrix(1,0,0,1,-788.644,2673.89)">
            <g transform="matrix(0.848134,0.0632247,-0.188186,0.756129,2503.04,-1342.34)">
                <path d="M662.006,2399.67C653.773,2401.8 633.09,2402.73 623.2,2401.37C611.618,2399.76 590.175,2393.19 569.687,2384.69C538.314,2371.69 530.148,2369.7 479.296,2361.59C444.172,2355.99 438.942,2354.44 432.479,2351.48C427.976,2349.42 424.604,2347.27 421.981,2345.04L418.115,2341.18L414.676,2336.34L412.197,2331.14L410.74,2326.25C410.024,2323.06 409.617,2319.16 409.617,2314.25C409.617,2304.87 411.186,2294.39 414.998,2280.67C416.826,2274.09 416.734,2273.54 416.706,2262.43C416.685,2253.71 416.288,2246.23 415.466,2239.98C413.355,2223.99 413.715,2204.63 415.487,2198.53C418.485,2188.21 424.382,2180.35 450.674,2168.96C475.845,2158.05 479.73,2154.84 502.921,2128.33C510.042,2120.2 517.683,2112.37 519.767,2110.79L523.123,2108.24L532.147,2105.44L541.614,2105.73C554.904,2106.15 556.325,2106.92 563.202,2110.3C572.019,2114.64 583.413,2125.25 593.767,2140.93C597.024,2145.86 605.829,2160.6 613.303,2173.68C633.47,2208.96 645.775,2227.98 666.089,2255.16C684.262,2279.48 695.932,2297.27 702.468,2310.37C708.598,2322.66 710.843,2332.18 710.885,2339.54C710.927,2346.97 706.027,2363.87 700.717,2372.69C693.42,2384.82 678.923,2395.3 662.006,2399.67Z" style="fill:white;"/>
            </g>
            <g transform="matrix(0.848134,0.0632247,-0.188186,0.756129,2503.04,-1342.34)">
                <path d="M655.388,2381.14C648.403,2382.95 630.845,2383.69 622.462,2382.53C611.825,2381.06 592.149,2374.87 573.329,2367.06C540.552,2353.47 532.028,2351.28 478.899,2342.81C447.294,2337.76 442.583,2336.8 436.767,2334.13C428.774,2330.47 427.013,2327.46 427.013,2317.46C427.013,2309.45 428.481,2300.57 431.731,2288.87C434.071,2280.45 434.138,2279.8 434.102,2265.58C434.079,2255.84 433.602,2247.46 432.681,2240.46C430.978,2227.56 430.735,2211.85 432.165,2206.93C434.376,2199.32 439.942,2195.19 459.333,2186.78C486.794,2174.89 491.134,2171.53 516.431,2142.61C522.735,2135.41 529.399,2128.37 531.243,2126.97L534.599,2124.42L544.06,2124.71C552.892,2124.99 553.841,2125.16 558.411,2127.41C564.829,2130.57 572.704,2138.8 580.239,2150.21C583.364,2154.94 591.794,2169.09 598.966,2181.64C619.743,2217.99 632.435,2237.57 653.364,2265.58C681.688,2303.49 693.419,2324.21 693.489,2336.46C693.52,2341.89 689.571,2354.05 685.688,2360.5C680.017,2369.92 668.536,2377.74 655.388,2381.14Z" style="fill:rgb(255,159,26);"/>
            </g>
            <g transform="matrix(0.848134,0.0632247,-0.188186,0.756129,2503.05,-1342.34)">
                <path d="M433.257,2282.93C434.037,2279.21 434.119,2276.13 434.106,2267.75L449.076,2274.1C452.741,2275.66 456.577,2275.34 459.43,2273.24L530.421,2220.98C532.138,2219.72 532.878,2217.37 532.332,2214.91C531.787,2212.45 530.049,2210.3 527.844,2209.37L466.835,2183.48C473.125,2180.63 478.051,2178.16 482.476,2175.4L546.341,2202.51C550.005,2204.07 553.841,2203.74 556.695,2201.64L594.47,2173.84C595.984,2176.44 597.501,2179.07 598.966,2181.64C600.033,2183.5 601.079,2185.33 602.106,2187.11L577.506,2205.22C575.789,2206.48 575.049,2208.83 575.595,2211.29C576.141,2213.75 577.878,2215.89 580.083,2216.83L635.068,2240.17C639.774,2247.02 644.699,2253.89 650.17,2261.28L555.765,2221.22L480.241,2276.81C478.525,2278.07 477.785,2280.42 478.33,2282.88C478.876,2285.34 480.613,2287.49 482.818,2288.42L579.81,2329.59L655.334,2274C656.338,2273.26 657.008,2272.15 657.282,2270.86C660.687,2275.48 663.827,2279.82 666.712,2283.92L604.641,2329.6C602.924,2330.87 602.184,2333.22 602.73,2335.68C603.275,2338.14 605.013,2340.28 607.218,2341.22L676.6,2370.66C672.364,2374.08 667.31,2376.97 661.797,2379.09L588.721,2348.08C585.057,2346.52 581.221,2346.84 578.367,2348.94L560.708,2361.94C554.676,2359.57 549.353,2357.64 543.996,2355.95L558.069,2345.59C559.786,2344.32 560.526,2341.97 559.98,2339.51C559.434,2337.05 557.697,2334.91 555.492,2333.97L464.322,2295.28C460.657,2293.72 456.821,2294.05 453.968,2296.15L427.03,2315.97C427.168,2309.77 428.174,2302.99 430.188,2294.76L433.157,2292.57C434.874,2291.31 435.613,2288.96 435.068,2286.5C434.773,2285.17 434.132,2283.94 433.257,2282.93Z"/>
            </g>
        </g>
    </g>
</svg>
